G04 #@! TF.GenerationSoftware,KiCad,Pcbnew,(6.0.8)*
G04 #@! TF.CreationDate,2022-11-07T23:28:12+01:00*
G04 #@! TF.ProjectId,15_XCAN,31355f58-4341-44e2-9e6b-696361645f70,rev?*
G04 #@! TF.SameCoordinates,Original*
G04 #@! TF.FileFunction,Copper,L1,Top*
G04 #@! TF.FilePolarity,Positive*
%FSLAX46Y46*%
G04 Gerber Fmt 4.6, Leading zero omitted, Abs format (unit mm)*
G04 Created by KiCad (PCBNEW (6.0.8)) date 2022-11-07 23:28:12*
%MOMM*%
%LPD*%
G01*
G04 APERTURE LIST*
G04 Aperture macros list*
%AMRoundRect*
0 Rectangle with rounded corners*
0 $1 Rounding radius*
0 $2 $3 $4 $5 $6 $7 $8 $9 X,Y pos of 4 corners*
0 Add a 4 corners polygon primitive as box body*
4,1,4,$2,$3,$4,$5,$6,$7,$8,$9,$2,$3,0*
0 Add four circle primitives for the rounded corners*
1,1,$1+$1,$2,$3*
1,1,$1+$1,$4,$5*
1,1,$1+$1,$6,$7*
1,1,$1+$1,$8,$9*
0 Add four rect primitives between the rounded corners*
20,1,$1+$1,$2,$3,$4,$5,0*
20,1,$1+$1,$4,$5,$6,$7,0*
20,1,$1+$1,$6,$7,$8,$9,0*
20,1,$1+$1,$8,$9,$2,$3,0*%
G04 Aperture macros list end*
G04 #@! TA.AperFunction,SMDPad,CuDef*
%ADD10RoundRect,0.237500X-0.287500X-0.237500X0.287500X-0.237500X0.287500X0.237500X-0.287500X0.237500X0*%
G04 #@! TD*
G04 #@! TA.AperFunction,SMDPad,CuDef*
%ADD11RoundRect,0.225000X-0.225000X-0.250000X0.225000X-0.250000X0.225000X0.250000X-0.225000X0.250000X0*%
G04 #@! TD*
G04 #@! TA.AperFunction,SMDPad,CuDef*
%ADD12RoundRect,0.150000X-0.150000X0.825000X-0.150000X-0.825000X0.150000X-0.825000X0.150000X0.825000X0*%
G04 #@! TD*
G04 #@! TA.AperFunction,ComponentPad*
%ADD13R,1.700000X1.700000*%
G04 #@! TD*
G04 #@! TA.AperFunction,ComponentPad*
%ADD14O,1.700000X1.700000*%
G04 #@! TD*
G04 #@! TA.AperFunction,ViaPad*
%ADD15C,1.000000*%
G04 #@! TD*
G04 #@! TA.AperFunction,Conductor*
%ADD16C,0.400000*%
G04 #@! TD*
G04 APERTURE END LIST*
D10*
X110250000Y-76200000D03*
X112000000Y-76200000D03*
D11*
X108445000Y-66040000D03*
X109995000Y-66040000D03*
D12*
X111125000Y-68645000D03*
X109855000Y-68645000D03*
X108585000Y-68645000D03*
X107315000Y-68645000D03*
X107315000Y-73595000D03*
X108585000Y-73595000D03*
X109855000Y-73595000D03*
X111125000Y-73595000D03*
D13*
X111760000Y-63500000D03*
X104140000Y-63500000D03*
D14*
X104140000Y-66040000D03*
X104140000Y-68580000D03*
X104140000Y-71120000D03*
X104140000Y-73660000D03*
X104140000Y-76200000D03*
D15*
X106680000Y-62230000D03*
X109220000Y-62230000D03*
X106680000Y-77470000D03*
X109220000Y-77470000D03*
D16*
X109220000Y-76835000D02*
X109220000Y-77470000D01*
X109855000Y-67691000D02*
X111125000Y-66421000D01*
X109855000Y-63500000D02*
X111125000Y-64770000D01*
X111125000Y-66421000D02*
X111125000Y-65913000D01*
X104140000Y-63500000D02*
X109855000Y-63500000D01*
X111125000Y-64770000D02*
X111125000Y-65913000D01*
X111760000Y-63500000D02*
X109220000Y-63500000D01*
X109220000Y-62230000D02*
X109220000Y-63500000D01*
X111125000Y-65913000D02*
X110998000Y-66040000D01*
X109855000Y-68645000D02*
X109855000Y-67691000D01*
X110998000Y-66040000D02*
X109995000Y-66040000D01*
X110250000Y-76200000D02*
X109855000Y-76200000D01*
X109855000Y-76200000D02*
X109220000Y-76835000D01*
X108585000Y-67691000D02*
X106934000Y-66040000D01*
X108585000Y-68645000D02*
X108585000Y-67691000D01*
X106934000Y-66040000D02*
X107569000Y-66040000D01*
X104140000Y-66040000D02*
X106934000Y-66040000D01*
X107569000Y-66040000D02*
X108445000Y-66040000D01*
X104140000Y-71120000D02*
X110363000Y-71120000D01*
X111125000Y-70358000D02*
X111125000Y-68645000D01*
X110363000Y-71120000D02*
X111125000Y-70358000D01*
X107315000Y-68645000D02*
X107315000Y-67564000D01*
X105029000Y-68580000D02*
X104140000Y-68580000D01*
X107315000Y-67564000D02*
X107061000Y-67310000D01*
X106299000Y-67310000D02*
X105029000Y-68580000D01*
X107061000Y-67310000D02*
X106299000Y-67310000D01*
X104140000Y-76200000D02*
X108585000Y-76200000D01*
X109855000Y-73595000D02*
X109855000Y-74930000D01*
X108585000Y-76200000D02*
X109855000Y-74930000D01*
X106045000Y-75565000D02*
X107950000Y-75565000D01*
X108585000Y-74930000D02*
X108585000Y-73595000D01*
X107950000Y-75565000D02*
X108585000Y-74930000D01*
X104140000Y-73660000D02*
X106045000Y-75565000D01*
X111125000Y-73595000D02*
X111125000Y-74930000D01*
X111125000Y-74930000D02*
X112395000Y-74930000D01*
X112395000Y-76200000D02*
X112000000Y-76200000D01*
X112395000Y-74930000D02*
X112395000Y-76200000D01*
G04 #@! TA.AperFunction,Conductor*
G36*
X113098621Y-61488502D02*
G01*
X113145114Y-61542158D01*
X113156500Y-61594500D01*
X113156500Y-62172803D01*
X113136498Y-62240924D01*
X113082842Y-62287417D01*
X113012568Y-62297521D01*
X112954935Y-62273629D01*
X112863649Y-62205214D01*
X112848054Y-62196676D01*
X112727606Y-62151522D01*
X112712351Y-62147895D01*
X112661486Y-62142369D01*
X112654672Y-62142000D01*
X112032115Y-62142000D01*
X112016876Y-62146475D01*
X112015671Y-62147865D01*
X112014000Y-62155548D01*
X112014000Y-64839884D01*
X112018475Y-64855123D01*
X112019865Y-64856328D01*
X112027548Y-64857999D01*
X112654669Y-64857999D01*
X112661490Y-64857629D01*
X112712352Y-64852105D01*
X112727604Y-64848479D01*
X112848054Y-64803324D01*
X112863649Y-64794786D01*
X112954935Y-64726371D01*
X113021442Y-64701523D01*
X113090824Y-64716576D01*
X113141054Y-64766750D01*
X113156500Y-64827197D01*
X113156500Y-74382459D01*
X113136498Y-74450580D01*
X113082842Y-74497073D01*
X113012568Y-74507177D01*
X112947988Y-74477683D01*
X112935986Y-74465784D01*
X112934660Y-74464280D01*
X112930357Y-74458019D01*
X112905537Y-74435905D01*
X112894412Y-74424662D01*
X112877557Y-74405341D01*
X112877553Y-74405338D01*
X112872561Y-74399615D01*
X112866347Y-74395247D01*
X112866344Y-74395245D01*
X112841778Y-74377979D01*
X112830414Y-74368972D01*
X112819694Y-74359422D01*
X112802321Y-74343943D01*
X112795612Y-74340391D01*
X112795608Y-74340388D01*
X112772946Y-74328389D01*
X112759459Y-74320124D01*
X112738481Y-74305381D01*
X112738478Y-74305379D01*
X112732261Y-74301010D01*
X112725180Y-74298249D01*
X112725176Y-74298247D01*
X112697210Y-74287343D01*
X112684023Y-74281306D01*
X112657482Y-74267254D01*
X112657480Y-74267253D01*
X112650769Y-74263700D01*
X112643409Y-74261851D01*
X112643403Y-74261849D01*
X112618534Y-74255603D01*
X112603457Y-74250791D01*
X112579573Y-74241479D01*
X112579572Y-74241479D01*
X112572491Y-74238718D01*
X112564961Y-74237727D01*
X112564958Y-74237726D01*
X112535193Y-74233808D01*
X112520941Y-74231090D01*
X112516169Y-74229891D01*
X112484451Y-74221924D01*
X112476853Y-74221884D01*
X112476852Y-74221884D01*
X112470239Y-74221849D01*
X112444324Y-74221713D01*
X112442965Y-74221665D01*
X112441706Y-74221500D01*
X112403762Y-74221500D01*
X112403102Y-74221498D01*
X112317372Y-74221049D01*
X112317371Y-74221049D01*
X112312969Y-74221026D01*
X112311452Y-74221390D01*
X112309550Y-74221500D01*
X112059500Y-74221500D01*
X111991379Y-74201498D01*
X111944886Y-74147842D01*
X111933500Y-74095500D01*
X111933500Y-72703498D01*
X111930562Y-72666169D01*
X111884145Y-72506399D01*
X111851597Y-72451364D01*
X111803491Y-72370020D01*
X111803489Y-72370017D01*
X111799453Y-72363193D01*
X111681807Y-72245547D01*
X111674983Y-72241511D01*
X111674980Y-72241509D01*
X111545427Y-72164892D01*
X111545428Y-72164892D01*
X111538601Y-72160855D01*
X111530990Y-72158644D01*
X111530988Y-72158643D01*
X111478769Y-72143472D01*
X111378831Y-72114438D01*
X111372426Y-72113934D01*
X111372421Y-72113933D01*
X111343958Y-72111693D01*
X111343950Y-72111693D01*
X111341502Y-72111500D01*
X110908498Y-72111500D01*
X110906050Y-72111693D01*
X110906042Y-72111693D01*
X110877579Y-72113933D01*
X110877574Y-72113934D01*
X110871169Y-72114438D01*
X110771231Y-72143472D01*
X110719012Y-72158643D01*
X110719010Y-72158644D01*
X110711399Y-72160855D01*
X110568193Y-72245547D01*
X110565511Y-72248229D01*
X110501139Y-72273502D01*
X110431516Y-72259600D01*
X110415688Y-72249428D01*
X110411807Y-72245547D01*
X110268601Y-72160855D01*
X110260990Y-72158644D01*
X110260988Y-72158643D01*
X110208769Y-72143472D01*
X110108831Y-72114438D01*
X110102426Y-72113934D01*
X110102421Y-72113933D01*
X110073958Y-72111693D01*
X110073950Y-72111693D01*
X110071502Y-72111500D01*
X109638498Y-72111500D01*
X109636050Y-72111693D01*
X109636042Y-72111693D01*
X109607579Y-72113933D01*
X109607574Y-72113934D01*
X109601169Y-72114438D01*
X109501231Y-72143472D01*
X109449012Y-72158643D01*
X109449010Y-72158644D01*
X109441399Y-72160855D01*
X109298193Y-72245547D01*
X109295511Y-72248229D01*
X109231139Y-72273502D01*
X109161516Y-72259600D01*
X109145688Y-72249428D01*
X109141807Y-72245547D01*
X108998601Y-72160855D01*
X108990990Y-72158644D01*
X108990988Y-72158643D01*
X108938769Y-72143472D01*
X108838831Y-72114438D01*
X108832426Y-72113934D01*
X108832421Y-72113933D01*
X108803958Y-72111693D01*
X108803950Y-72111693D01*
X108801502Y-72111500D01*
X108368498Y-72111500D01*
X108366050Y-72111693D01*
X108366042Y-72111693D01*
X108337579Y-72113933D01*
X108337574Y-72113934D01*
X108331169Y-72114438D01*
X108231231Y-72143472D01*
X108179012Y-72158643D01*
X108179010Y-72158644D01*
X108171399Y-72160855D01*
X108028193Y-72245547D01*
X108025511Y-72248229D01*
X107961139Y-72273502D01*
X107891516Y-72259600D01*
X107875688Y-72249428D01*
X107871807Y-72245547D01*
X107728601Y-72160855D01*
X107720990Y-72158644D01*
X107720988Y-72158643D01*
X107668769Y-72143472D01*
X107568831Y-72114438D01*
X107562426Y-72113934D01*
X107562421Y-72113933D01*
X107533958Y-72111693D01*
X107533950Y-72111693D01*
X107531502Y-72111500D01*
X107098498Y-72111500D01*
X107096050Y-72111693D01*
X107096042Y-72111693D01*
X107067579Y-72113933D01*
X107067574Y-72113934D01*
X107061169Y-72114438D01*
X106961231Y-72143472D01*
X106909012Y-72158643D01*
X106909010Y-72158644D01*
X106901399Y-72160855D01*
X106894572Y-72164892D01*
X106894573Y-72164892D01*
X106765020Y-72241509D01*
X106765017Y-72241511D01*
X106758193Y-72245547D01*
X106640547Y-72363193D01*
X106636511Y-72370017D01*
X106636509Y-72370020D01*
X106588403Y-72451364D01*
X106555855Y-72506399D01*
X106509438Y-72666169D01*
X106506500Y-72703498D01*
X106506500Y-74486502D01*
X106506693Y-74488950D01*
X106506693Y-74488958D01*
X106507170Y-74495012D01*
X106509438Y-74523831D01*
X106555855Y-74683601D01*
X106555995Y-74683838D01*
X106564275Y-74750921D01*
X106533497Y-74814899D01*
X106473016Y-74852081D01*
X106439941Y-74856500D01*
X106390660Y-74856500D01*
X106322539Y-74836498D01*
X106301565Y-74819595D01*
X105511383Y-74029413D01*
X105477357Y-73967101D01*
X105475556Y-73923871D01*
X105501092Y-73729908D01*
X105501529Y-73726590D01*
X105503156Y-73660000D01*
X105484852Y-73437361D01*
X105430431Y-73220702D01*
X105341354Y-73015840D01*
X105220014Y-72828277D01*
X105069670Y-72663051D01*
X105065619Y-72659852D01*
X105065615Y-72659848D01*
X104898414Y-72527800D01*
X104898410Y-72527798D01*
X104894359Y-72524598D01*
X104853053Y-72501796D01*
X104803084Y-72451364D01*
X104788312Y-72381921D01*
X104813428Y-72315516D01*
X104840780Y-72288909D01*
X104907232Y-72241509D01*
X105019860Y-72161173D01*
X105178096Y-72003489D01*
X105266132Y-71880974D01*
X105322127Y-71837326D01*
X105368455Y-71828500D01*
X110334088Y-71828500D01*
X110342658Y-71828792D01*
X110392776Y-71832209D01*
X110392780Y-71832209D01*
X110400352Y-71832725D01*
X110407829Y-71831420D01*
X110407830Y-71831420D01*
X110434308Y-71826799D01*
X110463303Y-71821738D01*
X110469821Y-71820777D01*
X110533242Y-71813102D01*
X110540343Y-71810419D01*
X110542952Y-71809778D01*
X110559262Y-71805315D01*
X110561798Y-71804550D01*
X110569284Y-71803243D01*
X110627800Y-71777556D01*
X110633904Y-71775065D01*
X110686548Y-71755173D01*
X110686549Y-71755172D01*
X110693656Y-71752487D01*
X110699919Y-71748183D01*
X110702285Y-71746946D01*
X110717097Y-71738701D01*
X110719351Y-71737368D01*
X110726305Y-71734315D01*
X110777002Y-71695413D01*
X110782332Y-71691541D01*
X110828720Y-71659661D01*
X110828725Y-71659656D01*
X110834981Y-71655357D01*
X110876436Y-71608829D01*
X110881416Y-71603554D01*
X111605520Y-70879450D01*
X111611785Y-70873596D01*
X111622132Y-70864570D01*
X111655385Y-70835561D01*
X111692114Y-70783300D01*
X111696046Y-70778005D01*
X111730791Y-70733694D01*
X111735477Y-70727718D01*
X111738602Y-70720796D01*
X111739964Y-70718548D01*
X111748368Y-70703815D01*
X111749622Y-70701476D01*
X111753990Y-70695261D01*
X111756749Y-70688185D01*
X111756751Y-70688181D01*
X111777200Y-70635731D01*
X111779749Y-70629666D01*
X111806045Y-70571427D01*
X111807429Y-70563962D01*
X111808226Y-70561418D01*
X111812859Y-70545152D01*
X111813521Y-70542572D01*
X111816282Y-70535491D01*
X111824622Y-70472143D01*
X111825653Y-70465629D01*
X111829166Y-70446680D01*
X111837296Y-70402813D01*
X111833709Y-70340602D01*
X111833500Y-70333349D01*
X111833500Y-69853706D01*
X111851045Y-69789569D01*
X111884145Y-69733601D01*
X111930562Y-69573831D01*
X111932436Y-69550031D01*
X111933307Y-69538958D01*
X111933307Y-69538950D01*
X111933500Y-69536502D01*
X111933500Y-67753498D01*
X111933307Y-67751042D01*
X111931067Y-67722579D01*
X111931066Y-67722574D01*
X111930562Y-67716169D01*
X111884145Y-67556399D01*
X111846908Y-67493434D01*
X111803491Y-67420020D01*
X111803489Y-67420017D01*
X111799453Y-67413193D01*
X111681807Y-67295547D01*
X111674983Y-67291511D01*
X111674980Y-67291509D01*
X111562987Y-67225277D01*
X111538601Y-67210855D01*
X111530990Y-67208644D01*
X111530988Y-67208643D01*
X111424042Y-67177573D01*
X111378831Y-67164438D01*
X111372426Y-67163934D01*
X111372421Y-67163933D01*
X111343958Y-67161693D01*
X111343950Y-67161693D01*
X111341502Y-67161500D01*
X110908498Y-67161500D01*
X110906050Y-67161693D01*
X110906042Y-67161693D01*
X110877579Y-67163933D01*
X110877574Y-67163934D01*
X110871169Y-67164438D01*
X110825958Y-67177573D01*
X110719012Y-67208643D01*
X110719010Y-67208644D01*
X110711399Y-67210855D01*
X110568193Y-67295547D01*
X110565253Y-67298487D01*
X110500729Y-67323821D01*
X110431106Y-67309920D01*
X110412360Y-67297871D01*
X110404677Y-67291911D01*
X110325319Y-67244979D01*
X110276866Y-67193086D01*
X110264161Y-67123235D01*
X110291236Y-67057604D01*
X110349496Y-67017030D01*
X110362862Y-67013364D01*
X110377453Y-67010213D01*
X110526107Y-66960619D01*
X110539286Y-66954445D01*
X110672173Y-66872212D01*
X110683574Y-66863176D01*
X110793986Y-66752571D01*
X110802998Y-66741160D01*
X110885004Y-66608120D01*
X110891151Y-66594939D01*
X110940491Y-66446186D01*
X110943358Y-66432810D01*
X110952672Y-66341903D01*
X110953000Y-66335487D01*
X110953000Y-66312115D01*
X110948525Y-66296876D01*
X110947135Y-66295671D01*
X110939452Y-66294000D01*
X109867000Y-66294000D01*
X109798879Y-66273998D01*
X109752386Y-66220342D01*
X109741000Y-66168000D01*
X109741000Y-65767885D01*
X110249000Y-65767885D01*
X110253475Y-65783124D01*
X110254865Y-65784329D01*
X110262548Y-65786000D01*
X110934885Y-65786000D01*
X110950124Y-65781525D01*
X110951329Y-65780135D01*
X110953000Y-65772452D01*
X110953000Y-65744562D01*
X110952663Y-65738047D01*
X110943106Y-65645943D01*
X110940212Y-65632544D01*
X110890619Y-65483893D01*
X110884445Y-65470714D01*
X110802212Y-65337827D01*
X110793176Y-65326426D01*
X110682571Y-65216014D01*
X110671160Y-65207002D01*
X110538120Y-65124996D01*
X110524939Y-65118849D01*
X110376186Y-65069509D01*
X110362810Y-65066642D01*
X110271903Y-65057328D01*
X110266874Y-65057071D01*
X110251876Y-65061475D01*
X110250671Y-65062865D01*
X110249000Y-65070548D01*
X110249000Y-65767885D01*
X109741000Y-65767885D01*
X109741000Y-65075115D01*
X109736525Y-65059876D01*
X109735135Y-65058671D01*
X109727452Y-65057000D01*
X109724562Y-65057000D01*
X109718047Y-65057337D01*
X109625943Y-65066894D01*
X109612544Y-65069788D01*
X109463893Y-65119381D01*
X109450714Y-65125555D01*
X109317827Y-65207788D01*
X109300689Y-65221371D01*
X109299159Y-65219441D01*
X109247120Y-65247903D01*
X109176301Y-65242887D01*
X109139383Y-65219201D01*
X109138628Y-65220157D01*
X109132882Y-65215619D01*
X109127702Y-65210448D01*
X109121471Y-65206607D01*
X108988331Y-65124538D01*
X108988329Y-65124537D01*
X108982101Y-65120698D01*
X108819757Y-65066851D01*
X108812920Y-65066151D01*
X108812918Y-65066150D01*
X108771599Y-65061917D01*
X108718732Y-65056500D01*
X108171268Y-65056500D01*
X108168022Y-65056837D01*
X108168018Y-65056837D01*
X108138730Y-65059876D01*
X108068981Y-65067113D01*
X108060963Y-65069788D01*
X107913676Y-65118927D01*
X107913674Y-65118928D01*
X107906732Y-65121244D01*
X107761287Y-65211248D01*
X107756114Y-65216430D01*
X107678162Y-65294518D01*
X107615880Y-65328597D01*
X107588989Y-65331500D01*
X107010873Y-65331500D01*
X106987912Y-65329390D01*
X106986282Y-65329088D01*
X106986281Y-65329088D01*
X106978814Y-65327704D01*
X106971234Y-65328141D01*
X106971233Y-65328141D01*
X106916608Y-65331291D01*
X106909354Y-65331500D01*
X105368286Y-65331500D01*
X105300165Y-65311498D01*
X105262494Y-65273941D01*
X105228485Y-65221371D01*
X105220014Y-65208277D01*
X105216540Y-65204459D01*
X105216533Y-65204450D01*
X105072435Y-65046088D01*
X105041383Y-64982242D01*
X105049779Y-64911744D01*
X105094956Y-64856976D01*
X105121400Y-64843307D01*
X105228052Y-64803325D01*
X105243649Y-64794786D01*
X105345724Y-64718285D01*
X105358285Y-64705724D01*
X105434786Y-64603649D01*
X105443324Y-64588054D01*
X105488478Y-64467606D01*
X105492105Y-64452351D01*
X105497631Y-64401486D01*
X105498000Y-64394672D01*
X105498000Y-64394669D01*
X110402001Y-64394669D01*
X110402371Y-64401490D01*
X110407895Y-64452352D01*
X110411521Y-64467604D01*
X110456676Y-64588054D01*
X110465214Y-64603649D01*
X110541715Y-64705724D01*
X110554276Y-64718285D01*
X110656351Y-64794786D01*
X110671946Y-64803324D01*
X110792394Y-64848478D01*
X110807649Y-64852105D01*
X110858514Y-64857631D01*
X110865328Y-64858000D01*
X111487885Y-64858000D01*
X111503124Y-64853525D01*
X111504329Y-64852135D01*
X111506000Y-64844452D01*
X111506000Y-63772115D01*
X111501525Y-63756876D01*
X111500135Y-63755671D01*
X111492452Y-63754000D01*
X110420116Y-63754000D01*
X110404877Y-63758475D01*
X110403672Y-63759865D01*
X110402001Y-63767548D01*
X110402001Y-64394669D01*
X105498000Y-64394669D01*
X105498000Y-63772115D01*
X105493525Y-63756876D01*
X105492135Y-63755671D01*
X105484452Y-63754000D01*
X102800116Y-63754000D01*
X102784877Y-63758475D01*
X102783672Y-63759865D01*
X102782001Y-63767548D01*
X102782001Y-64394669D01*
X102782371Y-64401490D01*
X102787895Y-64452352D01*
X102791521Y-64467604D01*
X102836676Y-64588054D01*
X102845214Y-64603649D01*
X102921715Y-64705724D01*
X102934276Y-64718285D01*
X103036351Y-64794786D01*
X103051946Y-64803324D01*
X103160827Y-64844142D01*
X103217591Y-64886784D01*
X103242291Y-64953345D01*
X103227083Y-65022694D01*
X103207691Y-65049175D01*
X103134701Y-65125555D01*
X103080629Y-65182138D01*
X103077715Y-65186410D01*
X103077714Y-65186411D01*
X103055346Y-65219201D01*
X102954743Y-65366680D01*
X102860688Y-65569305D01*
X102800989Y-65784570D01*
X102777251Y-66006695D01*
X102790110Y-66229715D01*
X102791247Y-66234761D01*
X102791248Y-66234767D01*
X102808680Y-66312115D01*
X102839222Y-66447639D01*
X102923266Y-66654616D01*
X102925965Y-66659020D01*
X103032027Y-66832098D01*
X103039987Y-66845088D01*
X103186250Y-67013938D01*
X103358126Y-67156632D01*
X103417301Y-67191211D01*
X103431445Y-67199476D01*
X103480169Y-67251114D01*
X103493240Y-67320897D01*
X103466509Y-67386669D01*
X103426055Y-67420027D01*
X103413607Y-67426507D01*
X103409474Y-67429610D01*
X103409471Y-67429612D01*
X103239100Y-67557530D01*
X103234965Y-67560635D01*
X103080629Y-67722138D01*
X102954743Y-67906680D01*
X102860688Y-68109305D01*
X102800989Y-68324570D01*
X102777251Y-68546695D01*
X102790110Y-68769715D01*
X102791247Y-68774761D01*
X102791248Y-68774767D01*
X102815304Y-68881508D01*
X102839222Y-68987639D01*
X102872194Y-69068839D01*
X102906535Y-69153411D01*
X102923266Y-69194616D01*
X103039987Y-69385088D01*
X103186250Y-69553938D01*
X103358126Y-69696632D01*
X103408363Y-69725988D01*
X103431445Y-69739476D01*
X103480169Y-69791114D01*
X103493240Y-69860897D01*
X103466509Y-69926669D01*
X103426055Y-69960027D01*
X103413607Y-69966507D01*
X103409474Y-69969610D01*
X103409471Y-69969612D01*
X103239100Y-70097530D01*
X103234965Y-70100635D01*
X103080629Y-70262138D01*
X102954743Y-70446680D01*
X102909034Y-70545152D01*
X102869812Y-70629650D01*
X102860688Y-70649305D01*
X102800989Y-70864570D01*
X102777251Y-71086695D01*
X102790110Y-71309715D01*
X102791247Y-71314761D01*
X102791248Y-71314767D01*
X102815304Y-71421508D01*
X102839222Y-71527639D01*
X102872190Y-71608830D01*
X102906535Y-71693411D01*
X102923266Y-71734616D01*
X103039987Y-71925088D01*
X103186250Y-72093938D01*
X103358126Y-72236632D01*
X103382981Y-72251156D01*
X103431445Y-72279476D01*
X103480169Y-72331114D01*
X103493240Y-72400897D01*
X103466509Y-72466669D01*
X103426055Y-72500027D01*
X103413607Y-72506507D01*
X103409474Y-72509610D01*
X103409471Y-72509612D01*
X103385247Y-72527800D01*
X103234965Y-72640635D01*
X103080629Y-72802138D01*
X102954743Y-72986680D01*
X102860688Y-73189305D01*
X102800989Y-73404570D01*
X102777251Y-73626695D01*
X102777548Y-73631848D01*
X102777548Y-73631851D01*
X102783011Y-73726590D01*
X102790110Y-73849715D01*
X102791247Y-73854761D01*
X102791248Y-73854767D01*
X102806822Y-73923871D01*
X102839222Y-74067639D01*
X102871789Y-74147842D01*
X102920277Y-74267254D01*
X102923266Y-74274616D01*
X102968847Y-74348997D01*
X103031097Y-74450580D01*
X103039987Y-74465088D01*
X103186250Y-74633938D01*
X103358126Y-74776632D01*
X103405507Y-74804319D01*
X103431445Y-74819476D01*
X103480169Y-74871114D01*
X103493240Y-74940897D01*
X103466509Y-75006669D01*
X103426055Y-75040027D01*
X103413607Y-75046507D01*
X103409474Y-75049610D01*
X103409471Y-75049612D01*
X103239100Y-75177530D01*
X103234965Y-75180635D01*
X103231393Y-75184373D01*
X103121167Y-75299718D01*
X103080629Y-75342138D01*
X102954743Y-75526680D01*
X102932176Y-75575296D01*
X102903034Y-75638079D01*
X102860688Y-75729305D01*
X102800989Y-75944570D01*
X102777251Y-76166695D01*
X102777548Y-76171848D01*
X102777548Y-76171851D01*
X102784329Y-76289451D01*
X102790110Y-76389715D01*
X102791247Y-76394761D01*
X102791248Y-76394767D01*
X102795999Y-76415846D01*
X102839222Y-76607639D01*
X102884157Y-76718301D01*
X102906535Y-76773411D01*
X102923266Y-76814616D01*
X102935863Y-76835173D01*
X103033012Y-76993705D01*
X103039987Y-77005088D01*
X103186250Y-77173938D01*
X103358126Y-77316632D01*
X103435273Y-77361713D01*
X103483995Y-77413351D01*
X103497066Y-77483134D01*
X103470334Y-77548906D01*
X103412287Y-77589784D01*
X103371701Y-77596500D01*
X102234500Y-77596500D01*
X102166379Y-77576498D01*
X102119886Y-77522842D01*
X102108500Y-77470500D01*
X102108500Y-63227885D01*
X102782000Y-63227885D01*
X102786475Y-63243124D01*
X102787865Y-63244329D01*
X102795548Y-63246000D01*
X103867885Y-63246000D01*
X103883124Y-63241525D01*
X103884329Y-63240135D01*
X103886000Y-63232452D01*
X103886000Y-63227885D01*
X104394000Y-63227885D01*
X104398475Y-63243124D01*
X104399865Y-63244329D01*
X104407548Y-63246000D01*
X105479884Y-63246000D01*
X105495123Y-63241525D01*
X105496328Y-63240135D01*
X105497999Y-63232452D01*
X105497999Y-63227885D01*
X110402000Y-63227885D01*
X110406475Y-63243124D01*
X110407865Y-63244329D01*
X110415548Y-63246000D01*
X111487885Y-63246000D01*
X111503124Y-63241525D01*
X111504329Y-63240135D01*
X111506000Y-63232452D01*
X111506000Y-62160116D01*
X111501525Y-62144877D01*
X111500135Y-62143672D01*
X111492452Y-62142001D01*
X110865331Y-62142001D01*
X110858510Y-62142371D01*
X110807648Y-62147895D01*
X110792396Y-62151521D01*
X110671946Y-62196676D01*
X110656351Y-62205214D01*
X110554276Y-62281715D01*
X110541715Y-62294276D01*
X110465214Y-62396351D01*
X110456676Y-62411946D01*
X110411522Y-62532394D01*
X110407895Y-62547649D01*
X110402369Y-62598514D01*
X110402000Y-62605328D01*
X110402000Y-63227885D01*
X105497999Y-63227885D01*
X105497999Y-62605331D01*
X105497629Y-62598510D01*
X105492105Y-62547648D01*
X105488479Y-62532396D01*
X105443324Y-62411946D01*
X105434786Y-62396351D01*
X105358285Y-62294276D01*
X105345724Y-62281715D01*
X105243649Y-62205214D01*
X105228054Y-62196676D01*
X105107606Y-62151522D01*
X105092351Y-62147895D01*
X105041486Y-62142369D01*
X105034672Y-62142000D01*
X104412115Y-62142000D01*
X104396876Y-62146475D01*
X104395671Y-62147865D01*
X104394000Y-62155548D01*
X104394000Y-63227885D01*
X103886000Y-63227885D01*
X103886000Y-62160116D01*
X103881525Y-62144877D01*
X103880135Y-62143672D01*
X103872452Y-62142001D01*
X103245331Y-62142001D01*
X103238510Y-62142371D01*
X103187648Y-62147895D01*
X103172396Y-62151521D01*
X103051946Y-62196676D01*
X103036351Y-62205214D01*
X102934276Y-62281715D01*
X102921715Y-62294276D01*
X102845214Y-62396351D01*
X102836676Y-62411946D01*
X102791522Y-62532394D01*
X102787895Y-62547649D01*
X102782369Y-62598514D01*
X102782000Y-62605328D01*
X102782000Y-63227885D01*
X102108500Y-63227885D01*
X102108500Y-61594500D01*
X102128502Y-61526379D01*
X102182158Y-61479886D01*
X102234500Y-61468500D01*
X113030500Y-61468500D01*
X113098621Y-61488502D01*
G37*
G04 #@! TD.AperFunction*
G04 #@! TA.AperFunction,Conductor*
G36*
X110446121Y-75966002D02*
G01*
X110492614Y-76019658D01*
X110504000Y-76072000D01*
X110504000Y-77164885D01*
X110508475Y-77180124D01*
X110509865Y-77181329D01*
X110517548Y-77183000D01*
X110583766Y-77183000D01*
X110590282Y-77182663D01*
X110684132Y-77172925D01*
X110697528Y-77170032D01*
X110848953Y-77119512D01*
X110862115Y-77113347D01*
X110997492Y-77029574D01*
X111008895Y-77020536D01*
X111035525Y-76993860D01*
X111097807Y-76959781D01*
X111168627Y-76964784D01*
X111213715Y-76993705D01*
X111246997Y-77026929D01*
X111395080Y-77118209D01*
X111560191Y-77172974D01*
X111567027Y-77173674D01*
X111567030Y-77173675D01*
X111601828Y-77177240D01*
X111662928Y-77183500D01*
X112337072Y-77183500D01*
X112340318Y-77183163D01*
X112340322Y-77183163D01*
X112434235Y-77173419D01*
X112434239Y-77173418D01*
X112441093Y-77172707D01*
X112447629Y-77170526D01*
X112447631Y-77170526D01*
X112580395Y-77126232D01*
X112606107Y-77117654D01*
X112754031Y-77026116D01*
X112786231Y-76993860D01*
X112871758Y-76908184D01*
X112871762Y-76908179D01*
X112876929Y-76903003D01*
X112923240Y-76827873D01*
X112976012Y-76780380D01*
X113046084Y-76768956D01*
X113111208Y-76797230D01*
X113150707Y-76856224D01*
X113156500Y-76893989D01*
X113156500Y-77470500D01*
X113136498Y-77538621D01*
X113082842Y-77585114D01*
X113030500Y-77596500D01*
X104915333Y-77596500D01*
X104847212Y-77576498D01*
X104800719Y-77522842D01*
X104790615Y-77452568D01*
X104820109Y-77387988D01*
X104842165Y-77367921D01*
X104910415Y-77319239D01*
X105019860Y-77241173D01*
X105079914Y-77181329D01*
X105174435Y-77087137D01*
X105178096Y-77083489D01*
X105181112Y-77079292D01*
X105266132Y-76960974D01*
X105322127Y-76917326D01*
X105368455Y-76908500D01*
X108556088Y-76908500D01*
X108564658Y-76908792D01*
X108614776Y-76912209D01*
X108614780Y-76912209D01*
X108622352Y-76912725D01*
X108629829Y-76911420D01*
X108629830Y-76911420D01*
X108678057Y-76903003D01*
X108685303Y-76901738D01*
X108691821Y-76900777D01*
X108755242Y-76893102D01*
X108762343Y-76890419D01*
X108764952Y-76889778D01*
X108781262Y-76885315D01*
X108783798Y-76884550D01*
X108791284Y-76883243D01*
X108849800Y-76857556D01*
X108855904Y-76855065D01*
X108908548Y-76835173D01*
X108908549Y-76835172D01*
X108915656Y-76832487D01*
X108921919Y-76828183D01*
X108924285Y-76826946D01*
X108939097Y-76818701D01*
X108941351Y-76817368D01*
X108948305Y-76814315D01*
X108999002Y-76775413D01*
X109004332Y-76771541D01*
X109050720Y-76739661D01*
X109050725Y-76739656D01*
X109056981Y-76735357D01*
X109072178Y-76718301D01*
X109132427Y-76680745D01*
X109203417Y-76681724D01*
X109262608Y-76720928D01*
X109280356Y-76748671D01*
X109286654Y-76762116D01*
X109370426Y-76897492D01*
X109379460Y-76908890D01*
X109492129Y-77021363D01*
X109503540Y-77030375D01*
X109639063Y-77113912D01*
X109652241Y-77120056D01*
X109803766Y-77170315D01*
X109817132Y-77173181D01*
X109909770Y-77182672D01*
X109916185Y-77183000D01*
X109977885Y-77183000D01*
X109993124Y-77178525D01*
X109994329Y-77177135D01*
X109996000Y-77169452D01*
X109996000Y-76072000D01*
X110016002Y-76003879D01*
X110069658Y-75957386D01*
X110122000Y-75946000D01*
X110378000Y-75946000D01*
X110446121Y-75966002D01*
G37*
G04 #@! TD.AperFunction*
G04 #@! TA.AperFunction,Conductor*
G36*
X106424533Y-68290606D02*
G01*
X106481368Y-68333153D01*
X106506179Y-68399673D01*
X106506500Y-68408662D01*
X106506500Y-69536502D01*
X106506693Y-69538950D01*
X106506693Y-69538958D01*
X106507565Y-69550031D01*
X106509438Y-69573831D01*
X106555855Y-69733601D01*
X106559892Y-69740427D01*
X106636509Y-69869980D01*
X106636511Y-69869983D01*
X106640547Y-69876807D01*
X106758193Y-69994453D01*
X106765016Y-69998488D01*
X106765020Y-69998491D01*
X106872589Y-70062107D01*
X106901399Y-70079145D01*
X106909010Y-70081356D01*
X106909012Y-70081357D01*
X106961231Y-70096528D01*
X107061169Y-70125562D01*
X107067574Y-70126066D01*
X107067579Y-70126067D01*
X107096042Y-70128307D01*
X107096050Y-70128307D01*
X107098498Y-70128500D01*
X107531502Y-70128500D01*
X107533950Y-70128307D01*
X107533958Y-70128307D01*
X107562421Y-70126067D01*
X107562426Y-70126066D01*
X107568831Y-70125562D01*
X107668769Y-70096528D01*
X107720988Y-70081357D01*
X107720990Y-70081356D01*
X107728601Y-70079145D01*
X107871807Y-69994453D01*
X107874489Y-69991771D01*
X107938861Y-69966498D01*
X108008484Y-69980400D01*
X108024312Y-69990572D01*
X108028193Y-69994453D01*
X108171399Y-70079145D01*
X108179010Y-70081356D01*
X108179012Y-70081357D01*
X108231231Y-70096528D01*
X108331169Y-70125562D01*
X108337574Y-70126066D01*
X108337579Y-70126067D01*
X108366042Y-70128307D01*
X108366050Y-70128307D01*
X108368498Y-70128500D01*
X108801502Y-70128500D01*
X108803950Y-70128307D01*
X108803958Y-70128307D01*
X108832421Y-70126067D01*
X108832426Y-70126066D01*
X108838831Y-70125562D01*
X108938769Y-70096528D01*
X108990988Y-70081357D01*
X108990990Y-70081356D01*
X108998601Y-70079145D01*
X109141807Y-69994453D01*
X109144747Y-69991513D01*
X109209271Y-69966179D01*
X109278894Y-69980080D01*
X109297640Y-69992129D01*
X109305323Y-69998089D01*
X109434779Y-70074648D01*
X109449210Y-70080893D01*
X109583605Y-70119939D01*
X109597706Y-70119899D01*
X109601000Y-70112630D01*
X109601000Y-68517000D01*
X109621002Y-68448879D01*
X109674658Y-68402386D01*
X109727000Y-68391000D01*
X109983000Y-68391000D01*
X110051121Y-68411002D01*
X110097614Y-68464658D01*
X110109000Y-68517000D01*
X110109000Y-70106878D01*
X110113475Y-70122117D01*
X110134788Y-70140585D01*
X110144928Y-70145217D01*
X110183306Y-70204947D01*
X110183299Y-70275944D01*
X110151501Y-70329529D01*
X110106435Y-70374595D01*
X110044123Y-70408621D01*
X110017340Y-70411500D01*
X105368286Y-70411500D01*
X105300165Y-70391498D01*
X105262494Y-70353941D01*
X105253865Y-70340602D01*
X105220014Y-70288277D01*
X105069670Y-70123051D01*
X105065619Y-70119852D01*
X105065615Y-70119848D01*
X104898414Y-69987800D01*
X104898410Y-69987798D01*
X104894359Y-69984598D01*
X104853053Y-69961796D01*
X104803084Y-69911364D01*
X104788312Y-69841921D01*
X104813428Y-69775516D01*
X104840780Y-69748909D01*
X104884603Y-69717650D01*
X105019860Y-69621173D01*
X105178096Y-69463489D01*
X105237594Y-69380689D01*
X105305435Y-69286277D01*
X105308453Y-69282077D01*
X105319657Y-69259407D01*
X105361246Y-69211394D01*
X105365306Y-69208604D01*
X105383098Y-69198701D01*
X105385355Y-69197366D01*
X105392305Y-69194315D01*
X105443002Y-69155413D01*
X105448332Y-69151541D01*
X105494720Y-69119661D01*
X105494725Y-69119656D01*
X105500981Y-69115357D01*
X105542427Y-69068839D01*
X105547408Y-69063562D01*
X106291405Y-68319566D01*
X106353717Y-68285541D01*
X106424533Y-68290606D01*
G37*
G04 #@! TD.AperFunction*
M02*
