G04 #@! TF.GenerationSoftware,KiCad,Pcbnew,(6.0.8)*
G04 #@! TF.CreationDate,2023-04-21T15:05:51+02:00*
G04 #@! TF.ProjectId,15_XCAN,31355f58-4341-44e2-9e6b-696361645f70,rev?*
G04 #@! TF.SameCoordinates,Original*
G04 #@! TF.FileFunction,AssemblyDrawing,Bot*
%FSLAX46Y46*%
G04 Gerber Fmt 4.6, Leading zero omitted, Abs format (unit mm)*
G04 Created by KiCad (PCBNEW (6.0.8)) date 2023-04-21 15:05:51*
%MOMM*%
%LPD*%
G01*
G04 APERTURE LIST*
%ADD10C,0.150000*%
%ADD11C,0.100000*%
G04 APERTURE END LIST*
D10*
X111212380Y-63166666D02*
X111926666Y-63166666D01*
X112069523Y-63119047D01*
X112164761Y-63023809D01*
X112212380Y-62880952D01*
X112212380Y-62785714D01*
X111212380Y-63547619D02*
X111212380Y-64214285D01*
X112212380Y-63785714D01*
X103592380Y-69516666D02*
X104306666Y-69516666D01*
X104449523Y-69469047D01*
X104544761Y-69373809D01*
X104592380Y-69230952D01*
X104592380Y-69135714D01*
X104592380Y-70516666D02*
X104592380Y-69945238D01*
X104592380Y-70230952D02*
X103592380Y-70230952D01*
X103735238Y-70135714D01*
X103830476Y-70040476D01*
X103878095Y-69945238D01*
D11*
X110490000Y-62230000D02*
X110490000Y-64770000D01*
X113030000Y-62865000D02*
X112395000Y-62230000D01*
X112395000Y-62230000D02*
X110490000Y-62230000D01*
X113030000Y-64770000D02*
X113030000Y-62865000D01*
X110490000Y-64770000D02*
X113030000Y-64770000D01*
X104775000Y-62230000D02*
X102870000Y-62230000D01*
X102870000Y-77470000D02*
X105410000Y-77470000D01*
X105410000Y-62865000D02*
X104775000Y-62230000D01*
X105410000Y-77470000D02*
X105410000Y-62865000D01*
X102870000Y-62230000D02*
X102870000Y-77470000D01*
M02*
