G04 #@! TF.GenerationSoftware,KiCad,Pcbnew,(6.0.8)*
G04 #@! TF.CreationDate,2023-04-21T15:05:51+02:00*
G04 #@! TF.ProjectId,15_XCAN,31355f58-4341-44e2-9e6b-696361645f70,rev?*
G04 #@! TF.SameCoordinates,Original*
G04 #@! TF.FileFunction,AssemblyDrawing,Top*
%FSLAX46Y46*%
G04 Gerber Fmt 4.6, Leading zero omitted, Abs format (unit mm)*
G04 Created by KiCad (PCBNEW (6.0.8)) date 2023-04-21 15:05:51*
%MOMM*%
%LPD*%
G01*
G04 APERTURE LIST*
%ADD10C,0.060000*%
%ADD11C,0.150000*%
%ADD12C,0.100000*%
G04 APERTURE END LIST*
D10*
X111058333Y-76380952D02*
X110925000Y-76190476D01*
X110829761Y-76380952D02*
X110829761Y-75980952D01*
X110982142Y-75980952D01*
X111020238Y-76000000D01*
X111039285Y-76019047D01*
X111058333Y-76057142D01*
X111058333Y-76114285D01*
X111039285Y-76152380D01*
X111020238Y-76171428D01*
X110982142Y-76190476D01*
X110829761Y-76190476D01*
X111439285Y-76380952D02*
X111210714Y-76380952D01*
X111325000Y-76380952D02*
X111325000Y-75980952D01*
X111286904Y-76038095D01*
X111248809Y-76076190D01*
X111210714Y-76095238D01*
X109153333Y-66182857D02*
X109134285Y-66201904D01*
X109077142Y-66220952D01*
X109039047Y-66220952D01*
X108981904Y-66201904D01*
X108943809Y-66163809D01*
X108924761Y-66125714D01*
X108905714Y-66049523D01*
X108905714Y-65992380D01*
X108924761Y-65916190D01*
X108943809Y-65878095D01*
X108981904Y-65840000D01*
X109039047Y-65820952D01*
X109077142Y-65820952D01*
X109134285Y-65840000D01*
X109153333Y-65859047D01*
X109534285Y-66220952D02*
X109305714Y-66220952D01*
X109420000Y-66220952D02*
X109420000Y-65820952D01*
X109381904Y-65878095D01*
X109343809Y-65916190D01*
X109305714Y-65935238D01*
D11*
X108683333Y-71866666D02*
X109476666Y-71866666D01*
X109570000Y-71820000D01*
X109616666Y-71773333D01*
X109663333Y-71680000D01*
X109663333Y-71493333D01*
X109616666Y-71400000D01*
X109570000Y-71353333D01*
X109476666Y-71306666D01*
X108683333Y-71306666D01*
X109663333Y-70326666D02*
X109663333Y-70886666D01*
X109663333Y-70606666D02*
X108683333Y-70606666D01*
X108823333Y-70700000D01*
X108916666Y-70793333D01*
X108963333Y-70886666D01*
D12*
X110325000Y-76600000D02*
X110325000Y-75800000D01*
X111925000Y-76600000D02*
X110325000Y-76600000D01*
X110325000Y-75800000D02*
X111925000Y-75800000D01*
X111925000Y-75800000D02*
X111925000Y-76600000D01*
X110020000Y-66440000D02*
X108420000Y-66440000D01*
X110020000Y-65640000D02*
X110020000Y-66440000D01*
X108420000Y-65640000D02*
X110020000Y-65640000D01*
X108420000Y-66440000D02*
X108420000Y-65640000D01*
X110695000Y-69170000D02*
X111670000Y-70145000D01*
X111670000Y-70145000D02*
X111670000Y-73070000D01*
X106770000Y-73070000D02*
X106770000Y-69170000D01*
X111670000Y-73070000D02*
X106770000Y-73070000D01*
X106770000Y-69170000D02*
X110695000Y-69170000D01*
M02*
