%TF.GenerationSoftware,KiCad,Pcbnew,(5.1.9)-1*%
%TF.CreationDate,2021-05-27T15:02:39+02:00*%
%TF.ProjectId,15_XCAN,31355f58-4341-44e2-9e6b-696361645f70,rev?*%
%TF.SameCoordinates,Original*%
%TF.FileFunction,Profile,NP*%
%FSLAX46Y46*%
G04 Gerber Fmt 4.6, Leading zero omitted, Abs format (unit mm)*
G04 Created by KiCad (PCBNEW (5.1.9)-1) date 2021-05-27 15:02:39*
%MOMM*%
%LPD*%
G01*
G04 APERTURE LIST*
%TA.AperFunction,Profile*%
%ADD10C,0.050000*%
%TD*%
G04 APERTURE END LIST*
D10*
X114935000Y-60960000D02*
X120650000Y-60960000D01*
X114935000Y-62230000D02*
X114935000Y-60960000D01*
X113665000Y-62230000D02*
X114935000Y-62230000D01*
X113665000Y-60960000D02*
X113665000Y-62230000D01*
X114935000Y-81280000D02*
X120650000Y-81280000D01*
X114935000Y-80010000D02*
X114935000Y-81280000D01*
X113665000Y-80010000D02*
X114935000Y-80010000D01*
X113665000Y-81280000D02*
X113665000Y-80010000D01*
X101600000Y-62230000D02*
X101600000Y-60960000D01*
X100330000Y-62230000D02*
X101600000Y-62230000D01*
X100330000Y-64770000D02*
X100330000Y-62230000D01*
X100330000Y-72390000D02*
X100330000Y-67310000D01*
X101600000Y-72390000D02*
X100330000Y-72390000D01*
X101600000Y-74930000D02*
X101600000Y-72390000D01*
X100330000Y-74930000D02*
X101600000Y-74930000D01*
X120650000Y-60960000D02*
X120650000Y-81280000D01*
X101600000Y-60960000D02*
X113665000Y-60960000D01*
X101600000Y-80010000D02*
X101600000Y-81280000D01*
X100330000Y-80010000D02*
X101600000Y-80010000D01*
X100330000Y-64770000D02*
X100330000Y-67310000D01*
X113665000Y-81280000D02*
X101600000Y-81280000D01*
X100330000Y-80010000D02*
X100330000Y-74930000D01*
M02*
