%TF.GenerationSoftware,KiCad,Pcbnew,(5.1.9)-1*%
%TF.CreationDate,2021-05-27T15:02:39+02:00*%
%TF.ProjectId,15_XCAN,31355f58-4341-44e2-9e6b-696361645f70,rev?*%
%TF.SameCoordinates,Original*%
%TF.FileFunction,Other,Fab,Top*%
%FSLAX46Y46*%
G04 Gerber Fmt 4.6, Leading zero omitted, Abs format (unit mm)*
G04 Created by KiCad (PCBNEW (5.1.9)-1) date 2021-05-27 15:02:39*
%MOMM*%
%LPD*%
G01*
G04 APERTURE LIST*
%TA.AperFunction,Profile*%
%ADD10C,0.050000*%
%TD*%
%ADD11C,0.120000*%
%ADD12C,0.100000*%
%ADD13C,0.150000*%
%ADD14C,0.060000*%
G04 APERTURE END LIST*
D10*
X114935000Y-60960000D02*
X120650000Y-60960000D01*
X114935000Y-62230000D02*
X114935000Y-60960000D01*
X113665000Y-62230000D02*
X114935000Y-62230000D01*
X113665000Y-60960000D02*
X113665000Y-62230000D01*
X114935000Y-81280000D02*
X120650000Y-81280000D01*
X114935000Y-80010000D02*
X114935000Y-81280000D01*
X113665000Y-80010000D02*
X114935000Y-80010000D01*
X113665000Y-81280000D02*
X113665000Y-80010000D01*
X101600000Y-62230000D02*
X101600000Y-60960000D01*
X100330000Y-62230000D02*
X101600000Y-62230000D01*
X100330000Y-64770000D02*
X100330000Y-62230000D01*
X100330000Y-72390000D02*
X100330000Y-67310000D01*
X101600000Y-72390000D02*
X100330000Y-72390000D01*
X101600000Y-74930000D02*
X101600000Y-72390000D01*
X100330000Y-74930000D02*
X101600000Y-74930000D01*
X120650000Y-60960000D02*
X120650000Y-81280000D01*
X101600000Y-60960000D02*
X113665000Y-60960000D01*
X101600000Y-80010000D02*
X101600000Y-81280000D01*
X100330000Y-80010000D02*
X101600000Y-80010000D01*
X100330000Y-64770000D02*
X100330000Y-67310000D01*
X113665000Y-81280000D02*
X101600000Y-81280000D01*
X100330000Y-80010000D02*
X100330000Y-74930000D01*
D11*
%TO.C,J4*%
X101600000Y-70485000D02*
X101600000Y-66675000D01*
D12*
X104775000Y-69850000D02*
X101600000Y-69850000D01*
X101600000Y-67310000D02*
X102870000Y-67310000D01*
X102870000Y-67310000D02*
X105410000Y-67310000D01*
X105410000Y-67310000D02*
X105410000Y-69215000D01*
X105410000Y-69215000D02*
X104775000Y-69850000D01*
D11*
%TO.C,J1*%
X101600000Y-65405000D02*
X101600000Y-61595000D01*
D12*
X104775000Y-64770000D02*
X101600000Y-64770000D01*
X101600000Y-62230000D02*
X102870000Y-62230000D01*
X102870000Y-62230000D02*
X105410000Y-62230000D01*
X105410000Y-62230000D02*
X105410000Y-64135000D01*
X105410000Y-64135000D02*
X104775000Y-64770000D01*
D11*
%TO.C,J2*%
X101600000Y-67945000D02*
X101600000Y-64135000D01*
D12*
X104775000Y-67310000D02*
X101600000Y-67310000D01*
X101600000Y-64770000D02*
X102870000Y-64770000D01*
X102870000Y-64770000D02*
X105410000Y-64770000D01*
X105410000Y-64770000D02*
X105410000Y-66675000D01*
X105410000Y-66675000D02*
X104775000Y-67310000D01*
D11*
%TO.C,J3*%
X101600000Y-73025000D02*
X101600000Y-69215000D01*
D12*
X104775000Y-72390000D02*
X101600000Y-72390000D01*
X101600000Y-69850000D02*
X102870000Y-69850000D01*
X102870000Y-69850000D02*
X105410000Y-69850000D01*
X105410000Y-69850000D02*
X105410000Y-71755000D01*
X105410000Y-71755000D02*
X104775000Y-72390000D01*
%TO.C,R1*%
X111652000Y-78397000D02*
X110852000Y-78397000D01*
X110852000Y-78397000D02*
X110852000Y-76797000D01*
X110852000Y-76797000D02*
X111652000Y-76797000D01*
X111652000Y-76797000D02*
X111652000Y-78397000D01*
D11*
%TO.C,J5*%
X101600000Y-80645000D02*
X101600000Y-76835000D01*
D12*
X104775000Y-80010000D02*
X101600000Y-80010000D01*
X101600000Y-77470000D02*
X102870000Y-77470000D01*
X102870000Y-77470000D02*
X105410000Y-77470000D01*
X105410000Y-77470000D02*
X105410000Y-79375000D01*
X105410000Y-79375000D02*
X104775000Y-80010000D01*
%TO.C,C1*%
X108420000Y-66440000D02*
X108420000Y-65640000D01*
X108420000Y-65640000D02*
X110020000Y-65640000D01*
X110020000Y-65640000D02*
X110020000Y-66440000D01*
X110020000Y-66440000D02*
X108420000Y-66440000D01*
D11*
%TO.C,J6*%
X101600000Y-78105000D02*
X101600000Y-74295000D01*
D12*
X104775000Y-77470000D02*
X101600000Y-77470000D01*
X101600000Y-74930000D02*
X102870000Y-74930000D01*
X102870000Y-74930000D02*
X105410000Y-74930000D01*
X105410000Y-74930000D02*
X105410000Y-76835000D01*
X105410000Y-76835000D02*
X104775000Y-77470000D01*
%TO.C,U1*%
X111670000Y-70145000D02*
X111670000Y-73070000D01*
X111670000Y-73070000D02*
X106770000Y-73070000D01*
X106770000Y-73070000D02*
X106770000Y-69170000D01*
X106770000Y-69170000D02*
X110695000Y-69170000D01*
X110695000Y-69170000D02*
X111670000Y-70145000D01*
D11*
%TO.C,J7*%
X114300000Y-61595000D02*
X114300000Y-65405000D01*
D12*
X111125000Y-62230000D02*
X114300000Y-62230000D01*
X114300000Y-64770000D02*
X113030000Y-64770000D01*
X113030000Y-64770000D02*
X110490000Y-64770000D01*
X110490000Y-64770000D02*
X110490000Y-62865000D01*
X110490000Y-62865000D02*
X111125000Y-62230000D01*
%TD*%
%TO.C,J4*%
D13*
X91511904Y-68937142D02*
X91464285Y-68984761D01*
X91321428Y-69032380D01*
X91226190Y-69032380D01*
X91083333Y-68984761D01*
X90988095Y-68889523D01*
X90940476Y-68794285D01*
X90892857Y-68603809D01*
X90892857Y-68460952D01*
X90940476Y-68270476D01*
X90988095Y-68175238D01*
X91083333Y-68080000D01*
X91226190Y-68032380D01*
X91321428Y-68032380D01*
X91464285Y-68080000D01*
X91511904Y-68127619D01*
X92083333Y-69032380D02*
X91988095Y-68984761D01*
X91940476Y-68937142D01*
X91892857Y-68841904D01*
X91892857Y-68556190D01*
X91940476Y-68460952D01*
X91988095Y-68413333D01*
X92083333Y-68365714D01*
X92226190Y-68365714D01*
X92321428Y-68413333D01*
X92369047Y-68460952D01*
X92416666Y-68556190D01*
X92416666Y-68841904D01*
X92369047Y-68937142D01*
X92321428Y-68984761D01*
X92226190Y-69032380D01*
X92083333Y-69032380D01*
X92845238Y-68365714D02*
X92845238Y-69032380D01*
X92845238Y-68460952D02*
X92892857Y-68413333D01*
X92988095Y-68365714D01*
X93130952Y-68365714D01*
X93226190Y-68413333D01*
X93273809Y-68508571D01*
X93273809Y-69032380D01*
X93750000Y-68365714D02*
X93750000Y-69032380D01*
X93750000Y-68460952D02*
X93797619Y-68413333D01*
X93892857Y-68365714D01*
X94035714Y-68365714D01*
X94130952Y-68413333D01*
X94178571Y-68508571D01*
X94178571Y-69032380D01*
X94416666Y-69127619D02*
X95178571Y-69127619D01*
X95607142Y-68032380D02*
X95702380Y-68032380D01*
X95797619Y-68080000D01*
X95845238Y-68127619D01*
X95892857Y-68222857D01*
X95940476Y-68413333D01*
X95940476Y-68651428D01*
X95892857Y-68841904D01*
X95845238Y-68937142D01*
X95797619Y-68984761D01*
X95702380Y-69032380D01*
X95607142Y-69032380D01*
X95511904Y-68984761D01*
X95464285Y-68937142D01*
X95416666Y-68841904D01*
X95369047Y-68651428D01*
X95369047Y-68413333D01*
X95416666Y-68222857D01*
X95464285Y-68127619D01*
X95511904Y-68080000D01*
X95607142Y-68032380D01*
X96892857Y-69032380D02*
X96321428Y-69032380D01*
X96607142Y-69032380D02*
X96607142Y-68032380D01*
X96511904Y-68175238D01*
X96416666Y-68270476D01*
X96321428Y-68318095D01*
X97226190Y-69032380D02*
X97750000Y-68365714D01*
X97226190Y-68365714D02*
X97750000Y-69032380D01*
X98321428Y-68032380D02*
X98416666Y-68032380D01*
X98511904Y-68080000D01*
X98559523Y-68127619D01*
X98607142Y-68222857D01*
X98654761Y-68413333D01*
X98654761Y-68651428D01*
X98607142Y-68841904D01*
X98559523Y-68937142D01*
X98511904Y-68984761D01*
X98416666Y-69032380D01*
X98321428Y-69032380D01*
X98226190Y-68984761D01*
X98178571Y-68937142D01*
X98130952Y-68841904D01*
X98083333Y-68651428D01*
X98083333Y-68413333D01*
X98130952Y-68222857D01*
X98178571Y-68127619D01*
X98226190Y-68080000D01*
X98321428Y-68032380D01*
X99607142Y-69032380D02*
X99035714Y-69032380D01*
X99321428Y-69032380D02*
X99321428Y-68032380D01*
X99226190Y-68175238D01*
X99130952Y-68270476D01*
X99035714Y-68318095D01*
X103806666Y-68032380D02*
X103806666Y-68746666D01*
X103759047Y-68889523D01*
X103663809Y-68984761D01*
X103520952Y-69032380D01*
X103425714Y-69032380D01*
X104711428Y-68365714D02*
X104711428Y-69032380D01*
X104473333Y-67984761D02*
X104235238Y-68699047D01*
X104854285Y-68699047D01*
%TO.C,J1*%
X91511904Y-63857142D02*
X91464285Y-63904761D01*
X91321428Y-63952380D01*
X91226190Y-63952380D01*
X91083333Y-63904761D01*
X90988095Y-63809523D01*
X90940476Y-63714285D01*
X90892857Y-63523809D01*
X90892857Y-63380952D01*
X90940476Y-63190476D01*
X90988095Y-63095238D01*
X91083333Y-63000000D01*
X91226190Y-62952380D01*
X91321428Y-62952380D01*
X91464285Y-63000000D01*
X91511904Y-63047619D01*
X92083333Y-63952380D02*
X91988095Y-63904761D01*
X91940476Y-63857142D01*
X91892857Y-63761904D01*
X91892857Y-63476190D01*
X91940476Y-63380952D01*
X91988095Y-63333333D01*
X92083333Y-63285714D01*
X92226190Y-63285714D01*
X92321428Y-63333333D01*
X92369047Y-63380952D01*
X92416666Y-63476190D01*
X92416666Y-63761904D01*
X92369047Y-63857142D01*
X92321428Y-63904761D01*
X92226190Y-63952380D01*
X92083333Y-63952380D01*
X92845238Y-63285714D02*
X92845238Y-63952380D01*
X92845238Y-63380952D02*
X92892857Y-63333333D01*
X92988095Y-63285714D01*
X93130952Y-63285714D01*
X93226190Y-63333333D01*
X93273809Y-63428571D01*
X93273809Y-63952380D01*
X93750000Y-63285714D02*
X93750000Y-63952380D01*
X93750000Y-63380952D02*
X93797619Y-63333333D01*
X93892857Y-63285714D01*
X94035714Y-63285714D01*
X94130952Y-63333333D01*
X94178571Y-63428571D01*
X94178571Y-63952380D01*
X94416666Y-64047619D02*
X95178571Y-64047619D01*
X95607142Y-62952380D02*
X95702380Y-62952380D01*
X95797619Y-63000000D01*
X95845238Y-63047619D01*
X95892857Y-63142857D01*
X95940476Y-63333333D01*
X95940476Y-63571428D01*
X95892857Y-63761904D01*
X95845238Y-63857142D01*
X95797619Y-63904761D01*
X95702380Y-63952380D01*
X95607142Y-63952380D01*
X95511904Y-63904761D01*
X95464285Y-63857142D01*
X95416666Y-63761904D01*
X95369047Y-63571428D01*
X95369047Y-63333333D01*
X95416666Y-63142857D01*
X95464285Y-63047619D01*
X95511904Y-63000000D01*
X95607142Y-62952380D01*
X96892857Y-63952380D02*
X96321428Y-63952380D01*
X96607142Y-63952380D02*
X96607142Y-62952380D01*
X96511904Y-63095238D01*
X96416666Y-63190476D01*
X96321428Y-63238095D01*
X97226190Y-63952380D02*
X97750000Y-63285714D01*
X97226190Y-63285714D02*
X97750000Y-63952380D01*
X98321428Y-62952380D02*
X98416666Y-62952380D01*
X98511904Y-63000000D01*
X98559523Y-63047619D01*
X98607142Y-63142857D01*
X98654761Y-63333333D01*
X98654761Y-63571428D01*
X98607142Y-63761904D01*
X98559523Y-63857142D01*
X98511904Y-63904761D01*
X98416666Y-63952380D01*
X98321428Y-63952380D01*
X98226190Y-63904761D01*
X98178571Y-63857142D01*
X98130952Y-63761904D01*
X98083333Y-63571428D01*
X98083333Y-63333333D01*
X98130952Y-63142857D01*
X98178571Y-63047619D01*
X98226190Y-63000000D01*
X98321428Y-62952380D01*
X99607142Y-63952380D02*
X99035714Y-63952380D01*
X99321428Y-63952380D02*
X99321428Y-62952380D01*
X99226190Y-63095238D01*
X99130952Y-63190476D01*
X99035714Y-63238095D01*
X103806666Y-62952380D02*
X103806666Y-63666666D01*
X103759047Y-63809523D01*
X103663809Y-63904761D01*
X103520952Y-63952380D01*
X103425714Y-63952380D01*
X104806666Y-63952380D02*
X104235238Y-63952380D01*
X104520952Y-63952380D02*
X104520952Y-62952380D01*
X104425714Y-63095238D01*
X104330476Y-63190476D01*
X104235238Y-63238095D01*
%TO.C,J2*%
X91511904Y-66397142D02*
X91464285Y-66444761D01*
X91321428Y-66492380D01*
X91226190Y-66492380D01*
X91083333Y-66444761D01*
X90988095Y-66349523D01*
X90940476Y-66254285D01*
X90892857Y-66063809D01*
X90892857Y-65920952D01*
X90940476Y-65730476D01*
X90988095Y-65635238D01*
X91083333Y-65540000D01*
X91226190Y-65492380D01*
X91321428Y-65492380D01*
X91464285Y-65540000D01*
X91511904Y-65587619D01*
X92083333Y-66492380D02*
X91988095Y-66444761D01*
X91940476Y-66397142D01*
X91892857Y-66301904D01*
X91892857Y-66016190D01*
X91940476Y-65920952D01*
X91988095Y-65873333D01*
X92083333Y-65825714D01*
X92226190Y-65825714D01*
X92321428Y-65873333D01*
X92369047Y-65920952D01*
X92416666Y-66016190D01*
X92416666Y-66301904D01*
X92369047Y-66397142D01*
X92321428Y-66444761D01*
X92226190Y-66492380D01*
X92083333Y-66492380D01*
X92845238Y-65825714D02*
X92845238Y-66492380D01*
X92845238Y-65920952D02*
X92892857Y-65873333D01*
X92988095Y-65825714D01*
X93130952Y-65825714D01*
X93226190Y-65873333D01*
X93273809Y-65968571D01*
X93273809Y-66492380D01*
X93750000Y-65825714D02*
X93750000Y-66492380D01*
X93750000Y-65920952D02*
X93797619Y-65873333D01*
X93892857Y-65825714D01*
X94035714Y-65825714D01*
X94130952Y-65873333D01*
X94178571Y-65968571D01*
X94178571Y-66492380D01*
X94416666Y-66587619D02*
X95178571Y-66587619D01*
X95607142Y-65492380D02*
X95702380Y-65492380D01*
X95797619Y-65540000D01*
X95845238Y-65587619D01*
X95892857Y-65682857D01*
X95940476Y-65873333D01*
X95940476Y-66111428D01*
X95892857Y-66301904D01*
X95845238Y-66397142D01*
X95797619Y-66444761D01*
X95702380Y-66492380D01*
X95607142Y-66492380D01*
X95511904Y-66444761D01*
X95464285Y-66397142D01*
X95416666Y-66301904D01*
X95369047Y-66111428D01*
X95369047Y-65873333D01*
X95416666Y-65682857D01*
X95464285Y-65587619D01*
X95511904Y-65540000D01*
X95607142Y-65492380D01*
X96892857Y-66492380D02*
X96321428Y-66492380D01*
X96607142Y-66492380D02*
X96607142Y-65492380D01*
X96511904Y-65635238D01*
X96416666Y-65730476D01*
X96321428Y-65778095D01*
X97226190Y-66492380D02*
X97750000Y-65825714D01*
X97226190Y-65825714D02*
X97750000Y-66492380D01*
X98321428Y-65492380D02*
X98416666Y-65492380D01*
X98511904Y-65540000D01*
X98559523Y-65587619D01*
X98607142Y-65682857D01*
X98654761Y-65873333D01*
X98654761Y-66111428D01*
X98607142Y-66301904D01*
X98559523Y-66397142D01*
X98511904Y-66444761D01*
X98416666Y-66492380D01*
X98321428Y-66492380D01*
X98226190Y-66444761D01*
X98178571Y-66397142D01*
X98130952Y-66301904D01*
X98083333Y-66111428D01*
X98083333Y-65873333D01*
X98130952Y-65682857D01*
X98178571Y-65587619D01*
X98226190Y-65540000D01*
X98321428Y-65492380D01*
X99607142Y-66492380D02*
X99035714Y-66492380D01*
X99321428Y-66492380D02*
X99321428Y-65492380D01*
X99226190Y-65635238D01*
X99130952Y-65730476D01*
X99035714Y-65778095D01*
X103806666Y-65492380D02*
X103806666Y-66206666D01*
X103759047Y-66349523D01*
X103663809Y-66444761D01*
X103520952Y-66492380D01*
X103425714Y-66492380D01*
X104235238Y-65587619D02*
X104282857Y-65540000D01*
X104378095Y-65492380D01*
X104616190Y-65492380D01*
X104711428Y-65540000D01*
X104759047Y-65587619D01*
X104806666Y-65682857D01*
X104806666Y-65778095D01*
X104759047Y-65920952D01*
X104187619Y-66492380D01*
X104806666Y-66492380D01*
%TO.C,J3*%
X91511904Y-71477142D02*
X91464285Y-71524761D01*
X91321428Y-71572380D01*
X91226190Y-71572380D01*
X91083333Y-71524761D01*
X90988095Y-71429523D01*
X90940476Y-71334285D01*
X90892857Y-71143809D01*
X90892857Y-71000952D01*
X90940476Y-70810476D01*
X90988095Y-70715238D01*
X91083333Y-70620000D01*
X91226190Y-70572380D01*
X91321428Y-70572380D01*
X91464285Y-70620000D01*
X91511904Y-70667619D01*
X92083333Y-71572380D02*
X91988095Y-71524761D01*
X91940476Y-71477142D01*
X91892857Y-71381904D01*
X91892857Y-71096190D01*
X91940476Y-71000952D01*
X91988095Y-70953333D01*
X92083333Y-70905714D01*
X92226190Y-70905714D01*
X92321428Y-70953333D01*
X92369047Y-71000952D01*
X92416666Y-71096190D01*
X92416666Y-71381904D01*
X92369047Y-71477142D01*
X92321428Y-71524761D01*
X92226190Y-71572380D01*
X92083333Y-71572380D01*
X92845238Y-70905714D02*
X92845238Y-71572380D01*
X92845238Y-71000952D02*
X92892857Y-70953333D01*
X92988095Y-70905714D01*
X93130952Y-70905714D01*
X93226190Y-70953333D01*
X93273809Y-71048571D01*
X93273809Y-71572380D01*
X93750000Y-70905714D02*
X93750000Y-71572380D01*
X93750000Y-71000952D02*
X93797619Y-70953333D01*
X93892857Y-70905714D01*
X94035714Y-70905714D01*
X94130952Y-70953333D01*
X94178571Y-71048571D01*
X94178571Y-71572380D01*
X94416666Y-71667619D02*
X95178571Y-71667619D01*
X95607142Y-70572380D02*
X95702380Y-70572380D01*
X95797619Y-70620000D01*
X95845238Y-70667619D01*
X95892857Y-70762857D01*
X95940476Y-70953333D01*
X95940476Y-71191428D01*
X95892857Y-71381904D01*
X95845238Y-71477142D01*
X95797619Y-71524761D01*
X95702380Y-71572380D01*
X95607142Y-71572380D01*
X95511904Y-71524761D01*
X95464285Y-71477142D01*
X95416666Y-71381904D01*
X95369047Y-71191428D01*
X95369047Y-70953333D01*
X95416666Y-70762857D01*
X95464285Y-70667619D01*
X95511904Y-70620000D01*
X95607142Y-70572380D01*
X96892857Y-71572380D02*
X96321428Y-71572380D01*
X96607142Y-71572380D02*
X96607142Y-70572380D01*
X96511904Y-70715238D01*
X96416666Y-70810476D01*
X96321428Y-70858095D01*
X97226190Y-71572380D02*
X97750000Y-70905714D01*
X97226190Y-70905714D02*
X97750000Y-71572380D01*
X98321428Y-70572380D02*
X98416666Y-70572380D01*
X98511904Y-70620000D01*
X98559523Y-70667619D01*
X98607142Y-70762857D01*
X98654761Y-70953333D01*
X98654761Y-71191428D01*
X98607142Y-71381904D01*
X98559523Y-71477142D01*
X98511904Y-71524761D01*
X98416666Y-71572380D01*
X98321428Y-71572380D01*
X98226190Y-71524761D01*
X98178571Y-71477142D01*
X98130952Y-71381904D01*
X98083333Y-71191428D01*
X98083333Y-70953333D01*
X98130952Y-70762857D01*
X98178571Y-70667619D01*
X98226190Y-70620000D01*
X98321428Y-70572380D01*
X99607142Y-71572380D02*
X99035714Y-71572380D01*
X99321428Y-71572380D02*
X99321428Y-70572380D01*
X99226190Y-70715238D01*
X99130952Y-70810476D01*
X99035714Y-70858095D01*
X103806666Y-70572380D02*
X103806666Y-71286666D01*
X103759047Y-71429523D01*
X103663809Y-71524761D01*
X103520952Y-71572380D01*
X103425714Y-71572380D01*
X104187619Y-70572380D02*
X104806666Y-70572380D01*
X104473333Y-70953333D01*
X104616190Y-70953333D01*
X104711428Y-71000952D01*
X104759047Y-71048571D01*
X104806666Y-71143809D01*
X104806666Y-71381904D01*
X104759047Y-71477142D01*
X104711428Y-71524761D01*
X104616190Y-71572380D01*
X104330476Y-71572380D01*
X104235238Y-71524761D01*
X104187619Y-71477142D01*
%TO.C,R1*%
X113134380Y-78192238D02*
X113134380Y-78763666D01*
X113134380Y-78477952D02*
X112134380Y-78477952D01*
X112277238Y-78573190D01*
X112372476Y-78668428D01*
X112420095Y-78763666D01*
X112134380Y-77573190D02*
X112134380Y-77477952D01*
X112182000Y-77382714D01*
X112229619Y-77335095D01*
X112324857Y-77287476D01*
X112515333Y-77239857D01*
X112753428Y-77239857D01*
X112943904Y-77287476D01*
X113039142Y-77335095D01*
X113086761Y-77382714D01*
X113134380Y-77477952D01*
X113134380Y-77573190D01*
X113086761Y-77668428D01*
X113039142Y-77716047D01*
X112943904Y-77763666D01*
X112753428Y-77811285D01*
X112515333Y-77811285D01*
X112324857Y-77763666D01*
X112229619Y-77716047D01*
X112182000Y-77668428D01*
X112134380Y-77573190D01*
X113134380Y-76811285D02*
X112134380Y-76811285D01*
X112753428Y-76716047D02*
X113134380Y-76430333D01*
X112467714Y-76430333D02*
X112848666Y-76811285D01*
D14*
X111432952Y-77663666D02*
X111242476Y-77797000D01*
X111432952Y-77892238D02*
X111032952Y-77892238D01*
X111032952Y-77739857D01*
X111052000Y-77701761D01*
X111071047Y-77682714D01*
X111109142Y-77663666D01*
X111166285Y-77663666D01*
X111204380Y-77682714D01*
X111223428Y-77701761D01*
X111242476Y-77739857D01*
X111242476Y-77892238D01*
X111432952Y-77282714D02*
X111432952Y-77511285D01*
X111432952Y-77397000D02*
X111032952Y-77397000D01*
X111090095Y-77435095D01*
X111128190Y-77473190D01*
X111147238Y-77511285D01*
%TO.C,J5*%
D13*
X91511904Y-79097142D02*
X91464285Y-79144761D01*
X91321428Y-79192380D01*
X91226190Y-79192380D01*
X91083333Y-79144761D01*
X90988095Y-79049523D01*
X90940476Y-78954285D01*
X90892857Y-78763809D01*
X90892857Y-78620952D01*
X90940476Y-78430476D01*
X90988095Y-78335238D01*
X91083333Y-78240000D01*
X91226190Y-78192380D01*
X91321428Y-78192380D01*
X91464285Y-78240000D01*
X91511904Y-78287619D01*
X92083333Y-79192380D02*
X91988095Y-79144761D01*
X91940476Y-79097142D01*
X91892857Y-79001904D01*
X91892857Y-78716190D01*
X91940476Y-78620952D01*
X91988095Y-78573333D01*
X92083333Y-78525714D01*
X92226190Y-78525714D01*
X92321428Y-78573333D01*
X92369047Y-78620952D01*
X92416666Y-78716190D01*
X92416666Y-79001904D01*
X92369047Y-79097142D01*
X92321428Y-79144761D01*
X92226190Y-79192380D01*
X92083333Y-79192380D01*
X92845238Y-78525714D02*
X92845238Y-79192380D01*
X92845238Y-78620952D02*
X92892857Y-78573333D01*
X92988095Y-78525714D01*
X93130952Y-78525714D01*
X93226190Y-78573333D01*
X93273809Y-78668571D01*
X93273809Y-79192380D01*
X93750000Y-78525714D02*
X93750000Y-79192380D01*
X93750000Y-78620952D02*
X93797619Y-78573333D01*
X93892857Y-78525714D01*
X94035714Y-78525714D01*
X94130952Y-78573333D01*
X94178571Y-78668571D01*
X94178571Y-79192380D01*
X94416666Y-79287619D02*
X95178571Y-79287619D01*
X95607142Y-78192380D02*
X95702380Y-78192380D01*
X95797619Y-78240000D01*
X95845238Y-78287619D01*
X95892857Y-78382857D01*
X95940476Y-78573333D01*
X95940476Y-78811428D01*
X95892857Y-79001904D01*
X95845238Y-79097142D01*
X95797619Y-79144761D01*
X95702380Y-79192380D01*
X95607142Y-79192380D01*
X95511904Y-79144761D01*
X95464285Y-79097142D01*
X95416666Y-79001904D01*
X95369047Y-78811428D01*
X95369047Y-78573333D01*
X95416666Y-78382857D01*
X95464285Y-78287619D01*
X95511904Y-78240000D01*
X95607142Y-78192380D01*
X96892857Y-79192380D02*
X96321428Y-79192380D01*
X96607142Y-79192380D02*
X96607142Y-78192380D01*
X96511904Y-78335238D01*
X96416666Y-78430476D01*
X96321428Y-78478095D01*
X97226190Y-79192380D02*
X97750000Y-78525714D01*
X97226190Y-78525714D02*
X97750000Y-79192380D01*
X98321428Y-78192380D02*
X98416666Y-78192380D01*
X98511904Y-78240000D01*
X98559523Y-78287619D01*
X98607142Y-78382857D01*
X98654761Y-78573333D01*
X98654761Y-78811428D01*
X98607142Y-79001904D01*
X98559523Y-79097142D01*
X98511904Y-79144761D01*
X98416666Y-79192380D01*
X98321428Y-79192380D01*
X98226190Y-79144761D01*
X98178571Y-79097142D01*
X98130952Y-79001904D01*
X98083333Y-78811428D01*
X98083333Y-78573333D01*
X98130952Y-78382857D01*
X98178571Y-78287619D01*
X98226190Y-78240000D01*
X98321428Y-78192380D01*
X99607142Y-79192380D02*
X99035714Y-79192380D01*
X99321428Y-79192380D02*
X99321428Y-78192380D01*
X99226190Y-78335238D01*
X99130952Y-78430476D01*
X99035714Y-78478095D01*
X103806666Y-78192380D02*
X103806666Y-78906666D01*
X103759047Y-79049523D01*
X103663809Y-79144761D01*
X103520952Y-79192380D01*
X103425714Y-79192380D01*
X104759047Y-78192380D02*
X104282857Y-78192380D01*
X104235238Y-78668571D01*
X104282857Y-78620952D01*
X104378095Y-78573333D01*
X104616190Y-78573333D01*
X104711428Y-78620952D01*
X104759047Y-78668571D01*
X104806666Y-78763809D01*
X104806666Y-79001904D01*
X104759047Y-79097142D01*
X104711428Y-79144761D01*
X104616190Y-79192380D01*
X104378095Y-79192380D01*
X104282857Y-79144761D01*
X104235238Y-79097142D01*
%TO.C,C1*%
X107672380Y-67922380D02*
X107100952Y-67922380D01*
X107386666Y-67922380D02*
X107386666Y-66922380D01*
X107291428Y-67065238D01*
X107196190Y-67160476D01*
X107100952Y-67208095D01*
X108291428Y-66922380D02*
X108386666Y-66922380D01*
X108481904Y-66970000D01*
X108529523Y-67017619D01*
X108577142Y-67112857D01*
X108624761Y-67303333D01*
X108624761Y-67541428D01*
X108577142Y-67731904D01*
X108529523Y-67827142D01*
X108481904Y-67874761D01*
X108386666Y-67922380D01*
X108291428Y-67922380D01*
X108196190Y-67874761D01*
X108148571Y-67827142D01*
X108100952Y-67731904D01*
X108053333Y-67541428D01*
X108053333Y-67303333D01*
X108100952Y-67112857D01*
X108148571Y-67017619D01*
X108196190Y-66970000D01*
X108291428Y-66922380D01*
X109243809Y-66922380D02*
X109339047Y-66922380D01*
X109434285Y-66970000D01*
X109481904Y-67017619D01*
X109529523Y-67112857D01*
X109577142Y-67303333D01*
X109577142Y-67541428D01*
X109529523Y-67731904D01*
X109481904Y-67827142D01*
X109434285Y-67874761D01*
X109339047Y-67922380D01*
X109243809Y-67922380D01*
X109148571Y-67874761D01*
X109100952Y-67827142D01*
X109053333Y-67731904D01*
X109005714Y-67541428D01*
X109005714Y-67303333D01*
X109053333Y-67112857D01*
X109100952Y-67017619D01*
X109148571Y-66970000D01*
X109243809Y-66922380D01*
X110005714Y-67255714D02*
X110005714Y-67922380D01*
X110005714Y-67350952D02*
X110053333Y-67303333D01*
X110148571Y-67255714D01*
X110291428Y-67255714D01*
X110386666Y-67303333D01*
X110434285Y-67398571D01*
X110434285Y-67922380D01*
X111243809Y-67398571D02*
X110910476Y-67398571D01*
X110910476Y-67922380D02*
X110910476Y-66922380D01*
X111386666Y-66922380D01*
D14*
X109153333Y-66182857D02*
X109134285Y-66201904D01*
X109077142Y-66220952D01*
X109039047Y-66220952D01*
X108981904Y-66201904D01*
X108943809Y-66163809D01*
X108924761Y-66125714D01*
X108905714Y-66049523D01*
X108905714Y-65992380D01*
X108924761Y-65916190D01*
X108943809Y-65878095D01*
X108981904Y-65840000D01*
X109039047Y-65820952D01*
X109077142Y-65820952D01*
X109134285Y-65840000D01*
X109153333Y-65859047D01*
X109534285Y-66220952D02*
X109305714Y-66220952D01*
X109420000Y-66220952D02*
X109420000Y-65820952D01*
X109381904Y-65878095D01*
X109343809Y-65916190D01*
X109305714Y-65935238D01*
%TO.C,J6*%
D13*
X91511904Y-76557142D02*
X91464285Y-76604761D01*
X91321428Y-76652380D01*
X91226190Y-76652380D01*
X91083333Y-76604761D01*
X90988095Y-76509523D01*
X90940476Y-76414285D01*
X90892857Y-76223809D01*
X90892857Y-76080952D01*
X90940476Y-75890476D01*
X90988095Y-75795238D01*
X91083333Y-75700000D01*
X91226190Y-75652380D01*
X91321428Y-75652380D01*
X91464285Y-75700000D01*
X91511904Y-75747619D01*
X92083333Y-76652380D02*
X91988095Y-76604761D01*
X91940476Y-76557142D01*
X91892857Y-76461904D01*
X91892857Y-76176190D01*
X91940476Y-76080952D01*
X91988095Y-76033333D01*
X92083333Y-75985714D01*
X92226190Y-75985714D01*
X92321428Y-76033333D01*
X92369047Y-76080952D01*
X92416666Y-76176190D01*
X92416666Y-76461904D01*
X92369047Y-76557142D01*
X92321428Y-76604761D01*
X92226190Y-76652380D01*
X92083333Y-76652380D01*
X92845238Y-75985714D02*
X92845238Y-76652380D01*
X92845238Y-76080952D02*
X92892857Y-76033333D01*
X92988095Y-75985714D01*
X93130952Y-75985714D01*
X93226190Y-76033333D01*
X93273809Y-76128571D01*
X93273809Y-76652380D01*
X93750000Y-75985714D02*
X93750000Y-76652380D01*
X93750000Y-76080952D02*
X93797619Y-76033333D01*
X93892857Y-75985714D01*
X94035714Y-75985714D01*
X94130952Y-76033333D01*
X94178571Y-76128571D01*
X94178571Y-76652380D01*
X94416666Y-76747619D02*
X95178571Y-76747619D01*
X95607142Y-75652380D02*
X95702380Y-75652380D01*
X95797619Y-75700000D01*
X95845238Y-75747619D01*
X95892857Y-75842857D01*
X95940476Y-76033333D01*
X95940476Y-76271428D01*
X95892857Y-76461904D01*
X95845238Y-76557142D01*
X95797619Y-76604761D01*
X95702380Y-76652380D01*
X95607142Y-76652380D01*
X95511904Y-76604761D01*
X95464285Y-76557142D01*
X95416666Y-76461904D01*
X95369047Y-76271428D01*
X95369047Y-76033333D01*
X95416666Y-75842857D01*
X95464285Y-75747619D01*
X95511904Y-75700000D01*
X95607142Y-75652380D01*
X96892857Y-76652380D02*
X96321428Y-76652380D01*
X96607142Y-76652380D02*
X96607142Y-75652380D01*
X96511904Y-75795238D01*
X96416666Y-75890476D01*
X96321428Y-75938095D01*
X97226190Y-76652380D02*
X97750000Y-75985714D01*
X97226190Y-75985714D02*
X97750000Y-76652380D01*
X98321428Y-75652380D02*
X98416666Y-75652380D01*
X98511904Y-75700000D01*
X98559523Y-75747619D01*
X98607142Y-75842857D01*
X98654761Y-76033333D01*
X98654761Y-76271428D01*
X98607142Y-76461904D01*
X98559523Y-76557142D01*
X98511904Y-76604761D01*
X98416666Y-76652380D01*
X98321428Y-76652380D01*
X98226190Y-76604761D01*
X98178571Y-76557142D01*
X98130952Y-76461904D01*
X98083333Y-76271428D01*
X98083333Y-76033333D01*
X98130952Y-75842857D01*
X98178571Y-75747619D01*
X98226190Y-75700000D01*
X98321428Y-75652380D01*
X99607142Y-76652380D02*
X99035714Y-76652380D01*
X99321428Y-76652380D02*
X99321428Y-75652380D01*
X99226190Y-75795238D01*
X99130952Y-75890476D01*
X99035714Y-75938095D01*
X103806666Y-75652380D02*
X103806666Y-76366666D01*
X103759047Y-76509523D01*
X103663809Y-76604761D01*
X103520952Y-76652380D01*
X103425714Y-76652380D01*
X104711428Y-75652380D02*
X104520952Y-75652380D01*
X104425714Y-75700000D01*
X104378095Y-75747619D01*
X104282857Y-75890476D01*
X104235238Y-76080952D01*
X104235238Y-76461904D01*
X104282857Y-76557142D01*
X104330476Y-76604761D01*
X104425714Y-76652380D01*
X104616190Y-76652380D01*
X104711428Y-76604761D01*
X104759047Y-76557142D01*
X104806666Y-76461904D01*
X104806666Y-76223809D01*
X104759047Y-76128571D01*
X104711428Y-76080952D01*
X104616190Y-76033333D01*
X104425714Y-76033333D01*
X104330476Y-76080952D01*
X104282857Y-76128571D01*
X104235238Y-76223809D01*
%TO.C,U1*%
X106272380Y-76834285D02*
X105272380Y-76834285D01*
X105986666Y-76500952D01*
X105272380Y-76167619D01*
X106272380Y-76167619D01*
X106177142Y-75120000D02*
X106224761Y-75167619D01*
X106272380Y-75310476D01*
X106272380Y-75405714D01*
X106224761Y-75548571D01*
X106129523Y-75643809D01*
X106034285Y-75691428D01*
X105843809Y-75739047D01*
X105700952Y-75739047D01*
X105510476Y-75691428D01*
X105415238Y-75643809D01*
X105320000Y-75548571D01*
X105272380Y-75405714D01*
X105272380Y-75310476D01*
X105320000Y-75167619D01*
X105367619Y-75120000D01*
X106272380Y-74691428D02*
X105272380Y-74691428D01*
X105272380Y-74310476D01*
X105320000Y-74215238D01*
X105367619Y-74167619D01*
X105462857Y-74120000D01*
X105605714Y-74120000D01*
X105700952Y-74167619D01*
X105748571Y-74215238D01*
X105796190Y-74310476D01*
X105796190Y-74691428D01*
X105367619Y-73739047D02*
X105320000Y-73691428D01*
X105272380Y-73596190D01*
X105272380Y-73358095D01*
X105320000Y-73262857D01*
X105367619Y-73215238D01*
X105462857Y-73167619D01*
X105558095Y-73167619D01*
X105700952Y-73215238D01*
X106272380Y-73786666D01*
X106272380Y-73167619D01*
X105272380Y-72262857D02*
X105272380Y-72739047D01*
X105748571Y-72786666D01*
X105700952Y-72739047D01*
X105653333Y-72643809D01*
X105653333Y-72405714D01*
X105700952Y-72310476D01*
X105748571Y-72262857D01*
X105843809Y-72215238D01*
X106081904Y-72215238D01*
X106177142Y-72262857D01*
X106224761Y-72310476D01*
X106272380Y-72405714D01*
X106272380Y-72643809D01*
X106224761Y-72739047D01*
X106177142Y-72786666D01*
X105272380Y-71310476D02*
X105272380Y-71786666D01*
X105748571Y-71834285D01*
X105700952Y-71786666D01*
X105653333Y-71691428D01*
X105653333Y-71453333D01*
X105700952Y-71358095D01*
X105748571Y-71310476D01*
X105843809Y-71262857D01*
X106081904Y-71262857D01*
X106177142Y-71310476D01*
X106224761Y-71358095D01*
X106272380Y-71453333D01*
X106272380Y-71691428D01*
X106224761Y-71786666D01*
X106177142Y-71834285D01*
X106272380Y-70310476D02*
X106272380Y-70881904D01*
X106272380Y-70596190D02*
X105272380Y-70596190D01*
X105415238Y-70691428D01*
X105510476Y-70786666D01*
X105558095Y-70881904D01*
X105891428Y-69881904D02*
X105891428Y-69120000D01*
X106272380Y-68643809D02*
X105272380Y-68643809D01*
X105891428Y-68167619D02*
X105891428Y-67405714D01*
X106224761Y-66977142D02*
X106272380Y-66834285D01*
X106272380Y-66596190D01*
X106224761Y-66500952D01*
X106177142Y-66453333D01*
X106081904Y-66405714D01*
X105986666Y-66405714D01*
X105891428Y-66453333D01*
X105843809Y-66500952D01*
X105796190Y-66596190D01*
X105748571Y-66786666D01*
X105700952Y-66881904D01*
X105653333Y-66929523D01*
X105558095Y-66977142D01*
X105462857Y-66977142D01*
X105367619Y-66929523D01*
X105320000Y-66881904D01*
X105272380Y-66786666D01*
X105272380Y-66548571D01*
X105320000Y-66405714D01*
X106272380Y-65977142D02*
X105272380Y-65977142D01*
X106272380Y-65405714D01*
X105272380Y-65405714D01*
X108683333Y-71866666D02*
X109476666Y-71866666D01*
X109570000Y-71820000D01*
X109616666Y-71773333D01*
X109663333Y-71680000D01*
X109663333Y-71493333D01*
X109616666Y-71400000D01*
X109570000Y-71353333D01*
X109476666Y-71306666D01*
X108683333Y-71306666D01*
X109663333Y-70326666D02*
X109663333Y-70886666D01*
X109663333Y-70606666D02*
X108683333Y-70606666D01*
X108823333Y-70700000D01*
X108916666Y-70793333D01*
X108963333Y-70886666D01*
%TO.C,J7*%
X116911904Y-63857142D02*
X116864285Y-63904761D01*
X116721428Y-63952380D01*
X116626190Y-63952380D01*
X116483333Y-63904761D01*
X116388095Y-63809523D01*
X116340476Y-63714285D01*
X116292857Y-63523809D01*
X116292857Y-63380952D01*
X116340476Y-63190476D01*
X116388095Y-63095238D01*
X116483333Y-63000000D01*
X116626190Y-62952380D01*
X116721428Y-62952380D01*
X116864285Y-63000000D01*
X116911904Y-63047619D01*
X117483333Y-63952380D02*
X117388095Y-63904761D01*
X117340476Y-63857142D01*
X117292857Y-63761904D01*
X117292857Y-63476190D01*
X117340476Y-63380952D01*
X117388095Y-63333333D01*
X117483333Y-63285714D01*
X117626190Y-63285714D01*
X117721428Y-63333333D01*
X117769047Y-63380952D01*
X117816666Y-63476190D01*
X117816666Y-63761904D01*
X117769047Y-63857142D01*
X117721428Y-63904761D01*
X117626190Y-63952380D01*
X117483333Y-63952380D01*
X118245238Y-63285714D02*
X118245238Y-63952380D01*
X118245238Y-63380952D02*
X118292857Y-63333333D01*
X118388095Y-63285714D01*
X118530952Y-63285714D01*
X118626190Y-63333333D01*
X118673809Y-63428571D01*
X118673809Y-63952380D01*
X119150000Y-63285714D02*
X119150000Y-63952380D01*
X119150000Y-63380952D02*
X119197619Y-63333333D01*
X119292857Y-63285714D01*
X119435714Y-63285714D01*
X119530952Y-63333333D01*
X119578571Y-63428571D01*
X119578571Y-63952380D01*
X119816666Y-64047619D02*
X120578571Y-64047619D01*
X121007142Y-62952380D02*
X121102380Y-62952380D01*
X121197619Y-63000000D01*
X121245238Y-63047619D01*
X121292857Y-63142857D01*
X121340476Y-63333333D01*
X121340476Y-63571428D01*
X121292857Y-63761904D01*
X121245238Y-63857142D01*
X121197619Y-63904761D01*
X121102380Y-63952380D01*
X121007142Y-63952380D01*
X120911904Y-63904761D01*
X120864285Y-63857142D01*
X120816666Y-63761904D01*
X120769047Y-63571428D01*
X120769047Y-63333333D01*
X120816666Y-63142857D01*
X120864285Y-63047619D01*
X120911904Y-63000000D01*
X121007142Y-62952380D01*
X122292857Y-63952380D02*
X121721428Y-63952380D01*
X122007142Y-63952380D02*
X122007142Y-62952380D01*
X121911904Y-63095238D01*
X121816666Y-63190476D01*
X121721428Y-63238095D01*
X122626190Y-63952380D02*
X123150000Y-63285714D01*
X122626190Y-63285714D02*
X123150000Y-63952380D01*
X123721428Y-62952380D02*
X123816666Y-62952380D01*
X123911904Y-63000000D01*
X123959523Y-63047619D01*
X124007142Y-63142857D01*
X124054761Y-63333333D01*
X124054761Y-63571428D01*
X124007142Y-63761904D01*
X123959523Y-63857142D01*
X123911904Y-63904761D01*
X123816666Y-63952380D01*
X123721428Y-63952380D01*
X123626190Y-63904761D01*
X123578571Y-63857142D01*
X123530952Y-63761904D01*
X123483333Y-63571428D01*
X123483333Y-63333333D01*
X123530952Y-63142857D01*
X123578571Y-63047619D01*
X123626190Y-63000000D01*
X123721428Y-62952380D01*
X125007142Y-63952380D02*
X124435714Y-63952380D01*
X124721428Y-63952380D02*
X124721428Y-62952380D01*
X124626190Y-63095238D01*
X124530952Y-63190476D01*
X124435714Y-63238095D01*
X111426666Y-62952380D02*
X111426666Y-63666666D01*
X111379047Y-63809523D01*
X111283809Y-63904761D01*
X111140952Y-63952380D01*
X111045714Y-63952380D01*
X111807619Y-62952380D02*
X112474285Y-62952380D01*
X112045714Y-63952380D01*
%TD*%
M02*
