%TF.GenerationSoftware,KiCad,Pcbnew,(5.1.9)-1*%
%TF.CreationDate,2021-05-27T15:02:39+02:00*%
%TF.ProjectId,15_XCAN,31355f58-4341-44e2-9e6b-696361645f70,rev?*%
%TF.SameCoordinates,Original*%
%TF.FileFunction,Paste,Top*%
%TF.FilePolarity,Positive*%
%FSLAX46Y46*%
G04 Gerber Fmt 4.6, Leading zero omitted, Abs format (unit mm)*
G04 Created by KiCad (PCBNEW (5.1.9)-1) date 2021-05-27 15:02:39*
%MOMM*%
%LPD*%
G01*
G04 APERTURE LIST*
%TA.AperFunction,Profile*%
%ADD10C,0.050000*%
%TD*%
G04 APERTURE END LIST*
D10*
X114935000Y-60960000D02*
X120650000Y-60960000D01*
X114935000Y-62230000D02*
X114935000Y-60960000D01*
X113665000Y-62230000D02*
X114935000Y-62230000D01*
X113665000Y-60960000D02*
X113665000Y-62230000D01*
X114935000Y-81280000D02*
X120650000Y-81280000D01*
X114935000Y-80010000D02*
X114935000Y-81280000D01*
X113665000Y-80010000D02*
X114935000Y-80010000D01*
X113665000Y-81280000D02*
X113665000Y-80010000D01*
X101600000Y-62230000D02*
X101600000Y-60960000D01*
X100330000Y-62230000D02*
X101600000Y-62230000D01*
X100330000Y-64770000D02*
X100330000Y-62230000D01*
X100330000Y-72390000D02*
X100330000Y-67310000D01*
X101600000Y-72390000D02*
X100330000Y-72390000D01*
X101600000Y-74930000D02*
X101600000Y-72390000D01*
X100330000Y-74930000D02*
X101600000Y-74930000D01*
X120650000Y-60960000D02*
X120650000Y-81280000D01*
X101600000Y-60960000D02*
X113665000Y-60960000D01*
X101600000Y-80010000D02*
X101600000Y-81280000D01*
X100330000Y-80010000D02*
X101600000Y-80010000D01*
X100330000Y-64770000D02*
X100330000Y-67310000D01*
X113665000Y-81280000D02*
X101600000Y-81280000D01*
X100330000Y-80010000D02*
X100330000Y-74930000D01*
%TO.C,R1*%
G36*
G01*
X111489500Y-77247000D02*
X111014500Y-77247000D01*
G75*
G02*
X110777000Y-77009500I0J237500D01*
G01*
X110777000Y-76434500D01*
G75*
G02*
X111014500Y-76197000I237500J0D01*
G01*
X111489500Y-76197000D01*
G75*
G02*
X111727000Y-76434500I0J-237500D01*
G01*
X111727000Y-77009500D01*
G75*
G02*
X111489500Y-77247000I-237500J0D01*
G01*
G37*
G36*
G01*
X111489500Y-78997000D02*
X111014500Y-78997000D01*
G75*
G02*
X110777000Y-78759500I0J237500D01*
G01*
X110777000Y-78184500D01*
G75*
G02*
X111014500Y-77947000I237500J0D01*
G01*
X111489500Y-77947000D01*
G75*
G02*
X111727000Y-78184500I0J-237500D01*
G01*
X111727000Y-78759500D01*
G75*
G02*
X111489500Y-78997000I-237500J0D01*
G01*
G37*
%TD*%
%TO.C,C1*%
G36*
G01*
X109545000Y-66290000D02*
X109545000Y-65790000D01*
G75*
G02*
X109770000Y-65565000I225000J0D01*
G01*
X110220000Y-65565000D01*
G75*
G02*
X110445000Y-65790000I0J-225000D01*
G01*
X110445000Y-66290000D01*
G75*
G02*
X110220000Y-66515000I-225000J0D01*
G01*
X109770000Y-66515000D01*
G75*
G02*
X109545000Y-66290000I0J225000D01*
G01*
G37*
G36*
G01*
X107995000Y-66290000D02*
X107995000Y-65790000D01*
G75*
G02*
X108220000Y-65565000I225000J0D01*
G01*
X108670000Y-65565000D01*
G75*
G02*
X108895000Y-65790000I0J-225000D01*
G01*
X108895000Y-66290000D01*
G75*
G02*
X108670000Y-66515000I-225000J0D01*
G01*
X108220000Y-66515000D01*
G75*
G02*
X107995000Y-66290000I0J225000D01*
G01*
G37*
%TD*%
%TO.C,U1*%
G36*
G01*
X110975000Y-72620000D02*
X111275000Y-72620000D01*
G75*
G02*
X111425000Y-72770000I0J-150000D01*
G01*
X111425000Y-74420000D01*
G75*
G02*
X111275000Y-74570000I-150000J0D01*
G01*
X110975000Y-74570000D01*
G75*
G02*
X110825000Y-74420000I0J150000D01*
G01*
X110825000Y-72770000D01*
G75*
G02*
X110975000Y-72620000I150000J0D01*
G01*
G37*
G36*
G01*
X109705000Y-72620000D02*
X110005000Y-72620000D01*
G75*
G02*
X110155000Y-72770000I0J-150000D01*
G01*
X110155000Y-74420000D01*
G75*
G02*
X110005000Y-74570000I-150000J0D01*
G01*
X109705000Y-74570000D01*
G75*
G02*
X109555000Y-74420000I0J150000D01*
G01*
X109555000Y-72770000D01*
G75*
G02*
X109705000Y-72620000I150000J0D01*
G01*
G37*
G36*
G01*
X108435000Y-72620000D02*
X108735000Y-72620000D01*
G75*
G02*
X108885000Y-72770000I0J-150000D01*
G01*
X108885000Y-74420000D01*
G75*
G02*
X108735000Y-74570000I-150000J0D01*
G01*
X108435000Y-74570000D01*
G75*
G02*
X108285000Y-74420000I0J150000D01*
G01*
X108285000Y-72770000D01*
G75*
G02*
X108435000Y-72620000I150000J0D01*
G01*
G37*
G36*
G01*
X107165000Y-72620000D02*
X107465000Y-72620000D01*
G75*
G02*
X107615000Y-72770000I0J-150000D01*
G01*
X107615000Y-74420000D01*
G75*
G02*
X107465000Y-74570000I-150000J0D01*
G01*
X107165000Y-74570000D01*
G75*
G02*
X107015000Y-74420000I0J150000D01*
G01*
X107015000Y-72770000D01*
G75*
G02*
X107165000Y-72620000I150000J0D01*
G01*
G37*
G36*
G01*
X107165000Y-67670000D02*
X107465000Y-67670000D01*
G75*
G02*
X107615000Y-67820000I0J-150000D01*
G01*
X107615000Y-69470000D01*
G75*
G02*
X107465000Y-69620000I-150000J0D01*
G01*
X107165000Y-69620000D01*
G75*
G02*
X107015000Y-69470000I0J150000D01*
G01*
X107015000Y-67820000D01*
G75*
G02*
X107165000Y-67670000I150000J0D01*
G01*
G37*
G36*
G01*
X108435000Y-67670000D02*
X108735000Y-67670000D01*
G75*
G02*
X108885000Y-67820000I0J-150000D01*
G01*
X108885000Y-69470000D01*
G75*
G02*
X108735000Y-69620000I-150000J0D01*
G01*
X108435000Y-69620000D01*
G75*
G02*
X108285000Y-69470000I0J150000D01*
G01*
X108285000Y-67820000D01*
G75*
G02*
X108435000Y-67670000I150000J0D01*
G01*
G37*
G36*
G01*
X109705000Y-67670000D02*
X110005000Y-67670000D01*
G75*
G02*
X110155000Y-67820000I0J-150000D01*
G01*
X110155000Y-69470000D01*
G75*
G02*
X110005000Y-69620000I-150000J0D01*
G01*
X109705000Y-69620000D01*
G75*
G02*
X109555000Y-69470000I0J150000D01*
G01*
X109555000Y-67820000D01*
G75*
G02*
X109705000Y-67670000I150000J0D01*
G01*
G37*
G36*
G01*
X110975000Y-67670000D02*
X111275000Y-67670000D01*
G75*
G02*
X111425000Y-67820000I0J-150000D01*
G01*
X111425000Y-69470000D01*
G75*
G02*
X111275000Y-69620000I-150000J0D01*
G01*
X110975000Y-69620000D01*
G75*
G02*
X110825000Y-69470000I0J150000D01*
G01*
X110825000Y-67820000D01*
G75*
G02*
X110975000Y-67670000I150000J0D01*
G01*
G37*
%TD*%
M02*
