G04 #@! TF.GenerationSoftware,KiCad,Pcbnew,(6.0.8)*
G04 #@! TF.CreationDate,2023-04-21T16:45:31+02:00*
G04 #@! TF.ProjectId,15_XCAN,31355f58-4341-44e2-9e6b-696361645f70,rev?*
G04 #@! TF.SameCoordinates,Original*
G04 #@! TF.FileFunction,Copper,L1,Top*
G04 #@! TF.FilePolarity,Positive*
%FSLAX46Y46*%
G04 Gerber Fmt 4.6, Leading zero omitted, Abs format (unit mm)*
G04 Created by KiCad (PCBNEW (6.0.8)) date 2023-04-21 16:45:31*
%MOMM*%
%LPD*%
G01*
G04 APERTURE LIST*
G04 Aperture macros list*
%AMRoundRect*
0 Rectangle with rounded corners*
0 $1 Rounding radius*
0 $2 $3 $4 $5 $6 $7 $8 $9 X,Y pos of 4 corners*
0 Add a 4 corners polygon primitive as box body*
4,1,4,$2,$3,$4,$5,$6,$7,$8,$9,$2,$3,0*
0 Add four circle primitives for the rounded corners*
1,1,$1+$1,$2,$3*
1,1,$1+$1,$4,$5*
1,1,$1+$1,$6,$7*
1,1,$1+$1,$8,$9*
0 Add four rect primitives between the rounded corners*
20,1,$1+$1,$2,$3,$4,$5,0*
20,1,$1+$1,$4,$5,$6,$7,0*
20,1,$1+$1,$6,$7,$8,$9,0*
20,1,$1+$1,$8,$9,$2,$3,0*%
%AMFreePoly0*
4,1,19,2.294749,0.844703,2.473926,0.804652,2.640323,0.727060,2.786177,0.615546,2.904682,0.475314,2.990310,0.312906,3.039066,0.135899,3.048675,-0.047448,3.018688,-0.228582,2.950505,-0.399051,2.847308,-0.550902,2.713909,-0.677050,2.556534,-0.771611,2.382525,-0.830171,2.200000,-0.850000,-0.850000,-0.850000,-0.850000,0.850000,2.200000,0.850000,2.294749,0.844703,2.294749,0.844703,
$1*%
G04 Aperture macros list end*
G04 #@! TA.AperFunction,ComponentPad*
%ADD10C,1.524000*%
G04 #@! TD*
G04 #@! TA.AperFunction,ComponentPad*
%ADD11FreePoly0,0.000000*%
G04 #@! TD*
G04 #@! TA.AperFunction,SMDPad,CuDef*
%ADD12RoundRect,0.237500X-0.287500X-0.237500X0.287500X-0.237500X0.287500X0.237500X-0.287500X0.237500X0*%
G04 #@! TD*
G04 #@! TA.AperFunction,SMDPad,CuDef*
%ADD13RoundRect,0.225000X-0.225000X-0.250000X0.225000X-0.250000X0.225000X0.250000X-0.225000X0.250000X0*%
G04 #@! TD*
G04 #@! TA.AperFunction,SMDPad,CuDef*
%ADD14RoundRect,0.150000X-0.150000X0.825000X-0.150000X-0.825000X0.150000X-0.825000X0.150000X0.825000X0*%
G04 #@! TD*
G04 #@! TA.AperFunction,ComponentPad*
%ADD15FreePoly0,180.000000*%
G04 #@! TD*
G04 #@! TA.AperFunction,ViaPad*
%ADD16C,1.000000*%
G04 #@! TD*
G04 #@! TA.AperFunction,Conductor*
%ADD17C,0.400000*%
G04 #@! TD*
G04 APERTURE END LIST*
D10*
X113665000Y-63500000D03*
D11*
X111760000Y-63500000D03*
D12*
X110250000Y-76200000D03*
X112000000Y-76200000D03*
D13*
X108445000Y-66040000D03*
X109995000Y-66040000D03*
D14*
X111125000Y-68645000D03*
X109855000Y-68645000D03*
X108585000Y-68645000D03*
X107315000Y-68645000D03*
X107315000Y-73595000D03*
X108585000Y-73595000D03*
X109855000Y-73595000D03*
X111125000Y-73595000D03*
D10*
X101600000Y-73660000D03*
D15*
X104140000Y-73660000D03*
X104140000Y-63500000D03*
D10*
X101600000Y-63500000D03*
X101600000Y-71120000D03*
D15*
X104140000Y-71120000D03*
D10*
X101600000Y-68580000D03*
D15*
X104140000Y-68580000D03*
D10*
X101600000Y-76200000D03*
D15*
X104140000Y-76200000D03*
X104140000Y-66040000D03*
D10*
X101600000Y-66040000D03*
D16*
X106680000Y-62230000D03*
X109220000Y-62230000D03*
X106680000Y-77470000D03*
X109220000Y-77470000D03*
D17*
X109220000Y-76835000D02*
X109220000Y-77470000D01*
X109855000Y-67691000D02*
X111125000Y-66421000D01*
X109855000Y-63500000D02*
X111125000Y-64770000D01*
X111125000Y-66421000D02*
X111125000Y-65913000D01*
X104140000Y-63500000D02*
X109855000Y-63500000D01*
X111125000Y-64770000D02*
X111125000Y-65913000D01*
X111760000Y-63500000D02*
X109220000Y-63500000D01*
X109220000Y-62230000D02*
X109220000Y-63500000D01*
X111125000Y-65913000D02*
X110998000Y-66040000D01*
X109855000Y-68645000D02*
X109855000Y-67691000D01*
X110998000Y-66040000D02*
X109995000Y-66040000D01*
X110250000Y-76200000D02*
X109855000Y-76200000D01*
X109855000Y-76200000D02*
X109220000Y-76835000D01*
X108585000Y-67691000D02*
X106934000Y-66040000D01*
X108585000Y-68645000D02*
X108585000Y-67691000D01*
X106934000Y-66040000D02*
X107569000Y-66040000D01*
X104140000Y-66040000D02*
X106934000Y-66040000D01*
X107569000Y-66040000D02*
X108445000Y-66040000D01*
X104140000Y-71120000D02*
X110363000Y-71120000D01*
X111125000Y-70358000D02*
X111125000Y-68645000D01*
X110363000Y-71120000D02*
X111125000Y-70358000D01*
X107315000Y-68645000D02*
X107315000Y-67564000D01*
X105029000Y-68580000D02*
X104140000Y-68580000D01*
X107315000Y-67564000D02*
X107061000Y-67310000D01*
X106299000Y-67310000D02*
X105029000Y-68580000D01*
X107061000Y-67310000D02*
X106299000Y-67310000D01*
X104140000Y-76200000D02*
X108585000Y-76200000D01*
X109855000Y-73595000D02*
X109855000Y-74930000D01*
X108585000Y-76200000D02*
X109855000Y-74930000D01*
X106045000Y-75565000D02*
X107950000Y-75565000D01*
X108585000Y-74930000D02*
X108585000Y-73595000D01*
X107950000Y-75565000D02*
X108585000Y-74930000D01*
X104140000Y-73660000D02*
X106045000Y-75565000D01*
X111125000Y-73595000D02*
X111125000Y-74930000D01*
X111125000Y-74930000D02*
X112395000Y-74930000D01*
X112395000Y-76200000D02*
X112000000Y-76200000D01*
X112395000Y-74930000D02*
X112395000Y-76200000D01*
G04 #@! TA.AperFunction,Conductor*
G36*
X110446121Y-75966002D02*
G01*
X110492614Y-76019658D01*
X110504000Y-76072000D01*
X110504000Y-77164885D01*
X110508475Y-77180124D01*
X110509865Y-77181329D01*
X110517548Y-77183000D01*
X110583766Y-77183000D01*
X110590282Y-77182663D01*
X110684132Y-77172925D01*
X110697528Y-77170032D01*
X110848953Y-77119512D01*
X110862115Y-77113347D01*
X110997492Y-77029574D01*
X111008895Y-77020536D01*
X111035525Y-76993860D01*
X111097807Y-76959781D01*
X111168627Y-76964784D01*
X111213715Y-76993705D01*
X111246997Y-77026929D01*
X111395080Y-77118209D01*
X111560191Y-77172974D01*
X111567027Y-77173674D01*
X111567030Y-77173675D01*
X111614370Y-77178525D01*
X111662928Y-77183500D01*
X112337072Y-77183500D01*
X112340318Y-77183163D01*
X112340322Y-77183163D01*
X112434235Y-77173419D01*
X112434239Y-77173418D01*
X112441093Y-77172707D01*
X112447629Y-77170526D01*
X112447631Y-77170526D01*
X112580395Y-77126232D01*
X112606107Y-77117654D01*
X112754031Y-77026116D01*
X112786231Y-76993860D01*
X112871758Y-76908184D01*
X112871762Y-76908179D01*
X112876929Y-76903003D01*
X112923240Y-76827873D01*
X112976012Y-76780380D01*
X113046084Y-76768956D01*
X113111208Y-76797230D01*
X113150707Y-76856224D01*
X113156500Y-76893989D01*
X113156500Y-77470500D01*
X113136498Y-77538621D01*
X113082842Y-77585114D01*
X113030500Y-77596500D01*
X105465198Y-77596500D01*
X105397077Y-77576498D01*
X105350584Y-77522842D01*
X105340480Y-77452568D01*
X105369974Y-77387987D01*
X105416274Y-77334555D01*
X105416276Y-77334552D01*
X105422176Y-77327743D01*
X105482919Y-77194734D01*
X105503729Y-77050000D01*
X105503729Y-77034500D01*
X105523731Y-76966379D01*
X105577387Y-76919886D01*
X105629729Y-76908500D01*
X108556088Y-76908500D01*
X108564658Y-76908792D01*
X108614776Y-76912209D01*
X108614780Y-76912209D01*
X108622352Y-76912725D01*
X108629829Y-76911420D01*
X108629830Y-76911420D01*
X108678057Y-76903003D01*
X108685303Y-76901738D01*
X108691821Y-76900777D01*
X108755242Y-76893102D01*
X108762343Y-76890419D01*
X108764952Y-76889778D01*
X108781262Y-76885315D01*
X108783798Y-76884550D01*
X108791284Y-76883243D01*
X108849800Y-76857556D01*
X108855904Y-76855065D01*
X108908548Y-76835173D01*
X108908549Y-76835172D01*
X108915656Y-76832487D01*
X108921919Y-76828183D01*
X108924285Y-76826946D01*
X108939097Y-76818701D01*
X108941351Y-76817368D01*
X108948305Y-76814315D01*
X108999002Y-76775413D01*
X109004332Y-76771541D01*
X109050720Y-76739661D01*
X109050725Y-76739656D01*
X109056981Y-76735357D01*
X109072178Y-76718301D01*
X109132427Y-76680745D01*
X109203417Y-76681724D01*
X109262608Y-76720928D01*
X109280356Y-76748671D01*
X109286654Y-76762116D01*
X109370426Y-76897492D01*
X109379460Y-76908890D01*
X109492129Y-77021363D01*
X109503540Y-77030375D01*
X109639063Y-77113912D01*
X109652241Y-77120056D01*
X109803766Y-77170315D01*
X109817132Y-77173181D01*
X109909770Y-77182672D01*
X109916185Y-77183000D01*
X109977885Y-77183000D01*
X109993124Y-77178525D01*
X109994329Y-77177135D01*
X109996000Y-77169452D01*
X109996000Y-76072000D01*
X110016002Y-76003879D01*
X110069658Y-75957386D01*
X110122000Y-75946000D01*
X110378000Y-75946000D01*
X110446121Y-75966002D01*
G37*
G04 #@! TD.AperFunction*
G04 #@! TA.AperFunction,Conductor*
G36*
X113098621Y-61488502D02*
G01*
X113145114Y-61542158D01*
X113156500Y-61594500D01*
X113156500Y-62255557D01*
X113136498Y-62323678D01*
X113083750Y-62369752D01*
X113032559Y-62393623D01*
X113023068Y-62399103D01*
X112979235Y-62429794D01*
X112970860Y-62440271D01*
X112977928Y-62453718D01*
X113119595Y-62595385D01*
X113153621Y-62657697D01*
X113156500Y-62684480D01*
X113156500Y-63046520D01*
X113136498Y-63114641D01*
X113082842Y-63161134D01*
X113012568Y-63171238D01*
X112947988Y-63141744D01*
X112941405Y-63135615D01*
X112617997Y-62812207D01*
X112606223Y-62805777D01*
X112594207Y-62815074D01*
X112564103Y-62858068D01*
X112558623Y-62867559D01*
X112469355Y-63058993D01*
X112465609Y-63069285D01*
X112410941Y-63273309D01*
X112409038Y-63284104D01*
X112390628Y-63494525D01*
X112390628Y-63505475D01*
X112409038Y-63715896D01*
X112410941Y-63726691D01*
X112465609Y-63930715D01*
X112469355Y-63941007D01*
X112558623Y-64132441D01*
X112564103Y-64141932D01*
X112594794Y-64185765D01*
X112605271Y-64194140D01*
X112618718Y-64187072D01*
X112941405Y-63864385D01*
X113003717Y-63830359D01*
X113074532Y-63835424D01*
X113131368Y-63877971D01*
X113156179Y-63944491D01*
X113156500Y-63953480D01*
X113156500Y-64315520D01*
X113136498Y-64383641D01*
X113119595Y-64404615D01*
X112977207Y-64547003D01*
X112970777Y-64558777D01*
X112980074Y-64570793D01*
X113023069Y-64600898D01*
X113032559Y-64606378D01*
X113083749Y-64630248D01*
X113137035Y-64677165D01*
X113156500Y-64744443D01*
X113156500Y-74382459D01*
X113136498Y-74450580D01*
X113082842Y-74497073D01*
X113012568Y-74507177D01*
X112947988Y-74477683D01*
X112935986Y-74465784D01*
X112934660Y-74464280D01*
X112930357Y-74458019D01*
X112905537Y-74435905D01*
X112894412Y-74424662D01*
X112877557Y-74405341D01*
X112877553Y-74405338D01*
X112872561Y-74399615D01*
X112866347Y-74395247D01*
X112866344Y-74395245D01*
X112841778Y-74377979D01*
X112830414Y-74368972D01*
X112819694Y-74359422D01*
X112802321Y-74343943D01*
X112795612Y-74340391D01*
X112795608Y-74340388D01*
X112772946Y-74328389D01*
X112759459Y-74320124D01*
X112738481Y-74305381D01*
X112738478Y-74305379D01*
X112732261Y-74301010D01*
X112725180Y-74298249D01*
X112725176Y-74298247D01*
X112697210Y-74287343D01*
X112684023Y-74281306D01*
X112657482Y-74267254D01*
X112657480Y-74267253D01*
X112650769Y-74263700D01*
X112643409Y-74261851D01*
X112643403Y-74261849D01*
X112618534Y-74255603D01*
X112603457Y-74250791D01*
X112579573Y-74241479D01*
X112579572Y-74241479D01*
X112572491Y-74238718D01*
X112564961Y-74237727D01*
X112564958Y-74237726D01*
X112535193Y-74233808D01*
X112520941Y-74231090D01*
X112516169Y-74229891D01*
X112484451Y-74221924D01*
X112476853Y-74221884D01*
X112476852Y-74221884D01*
X112470239Y-74221849D01*
X112444324Y-74221713D01*
X112442965Y-74221665D01*
X112441706Y-74221500D01*
X112403762Y-74221500D01*
X112403102Y-74221498D01*
X112317372Y-74221049D01*
X112317371Y-74221049D01*
X112312969Y-74221026D01*
X112311452Y-74221390D01*
X112309550Y-74221500D01*
X112059500Y-74221500D01*
X111991379Y-74201498D01*
X111944886Y-74147842D01*
X111933500Y-74095500D01*
X111933500Y-72703498D01*
X111930562Y-72666169D01*
X111901528Y-72566231D01*
X111886357Y-72514012D01*
X111886356Y-72514010D01*
X111884145Y-72506399D01*
X111814264Y-72388237D01*
X111803491Y-72370020D01*
X111803489Y-72370017D01*
X111799453Y-72363193D01*
X111681807Y-72245547D01*
X111674983Y-72241511D01*
X111674980Y-72241509D01*
X111545427Y-72164892D01*
X111545428Y-72164892D01*
X111538601Y-72160855D01*
X111530990Y-72158644D01*
X111530988Y-72158643D01*
X111478769Y-72143472D01*
X111378831Y-72114438D01*
X111372426Y-72113934D01*
X111372421Y-72113933D01*
X111343958Y-72111693D01*
X111343950Y-72111693D01*
X111341502Y-72111500D01*
X110908498Y-72111500D01*
X110906050Y-72111693D01*
X110906042Y-72111693D01*
X110877579Y-72113933D01*
X110877574Y-72113934D01*
X110871169Y-72114438D01*
X110771231Y-72143472D01*
X110719012Y-72158643D01*
X110719010Y-72158644D01*
X110711399Y-72160855D01*
X110568193Y-72245547D01*
X110565511Y-72248229D01*
X110501139Y-72273502D01*
X110431516Y-72259600D01*
X110415688Y-72249428D01*
X110411807Y-72245547D01*
X110268601Y-72160855D01*
X110260990Y-72158644D01*
X110260988Y-72158643D01*
X110208769Y-72143472D01*
X110108831Y-72114438D01*
X110102426Y-72113934D01*
X110102421Y-72113933D01*
X110073958Y-72111693D01*
X110073950Y-72111693D01*
X110071502Y-72111500D01*
X109638498Y-72111500D01*
X109636050Y-72111693D01*
X109636042Y-72111693D01*
X109607579Y-72113933D01*
X109607574Y-72113934D01*
X109601169Y-72114438D01*
X109501231Y-72143472D01*
X109449012Y-72158643D01*
X109449010Y-72158644D01*
X109441399Y-72160855D01*
X109298193Y-72245547D01*
X109295511Y-72248229D01*
X109231139Y-72273502D01*
X109161516Y-72259600D01*
X109145688Y-72249428D01*
X109141807Y-72245547D01*
X108998601Y-72160855D01*
X108990990Y-72158644D01*
X108990988Y-72158643D01*
X108938769Y-72143472D01*
X108838831Y-72114438D01*
X108832426Y-72113934D01*
X108832421Y-72113933D01*
X108803958Y-72111693D01*
X108803950Y-72111693D01*
X108801502Y-72111500D01*
X108368498Y-72111500D01*
X108366050Y-72111693D01*
X108366042Y-72111693D01*
X108337579Y-72113933D01*
X108337574Y-72113934D01*
X108331169Y-72114438D01*
X108231231Y-72143472D01*
X108179012Y-72158643D01*
X108179010Y-72158644D01*
X108171399Y-72160855D01*
X108028193Y-72245547D01*
X108025511Y-72248229D01*
X107961139Y-72273502D01*
X107891516Y-72259600D01*
X107875688Y-72249428D01*
X107871807Y-72245547D01*
X107728601Y-72160855D01*
X107720990Y-72158644D01*
X107720988Y-72158643D01*
X107668769Y-72143472D01*
X107568831Y-72114438D01*
X107562426Y-72113934D01*
X107562421Y-72113933D01*
X107533958Y-72111693D01*
X107533950Y-72111693D01*
X107531502Y-72111500D01*
X107098498Y-72111500D01*
X107096050Y-72111693D01*
X107096042Y-72111693D01*
X107067579Y-72113933D01*
X107067574Y-72113934D01*
X107061169Y-72114438D01*
X106961231Y-72143472D01*
X106909012Y-72158643D01*
X106909010Y-72158644D01*
X106901399Y-72160855D01*
X106894572Y-72164892D01*
X106894573Y-72164892D01*
X106765020Y-72241509D01*
X106765017Y-72241511D01*
X106758193Y-72245547D01*
X106640547Y-72363193D01*
X106636511Y-72370017D01*
X106636509Y-72370020D01*
X106625736Y-72388237D01*
X106555855Y-72506399D01*
X106553644Y-72514010D01*
X106553643Y-72514012D01*
X106538472Y-72566231D01*
X106509438Y-72666169D01*
X106506500Y-72703498D01*
X106506500Y-74486502D01*
X106506693Y-74488950D01*
X106506693Y-74488958D01*
X106507170Y-74495012D01*
X106509438Y-74523831D01*
X106555855Y-74683601D01*
X106555995Y-74683838D01*
X106564275Y-74750921D01*
X106533497Y-74814899D01*
X106473016Y-74852081D01*
X106439941Y-74856500D01*
X106390660Y-74856500D01*
X106322539Y-74836498D01*
X106301565Y-74819595D01*
X105540634Y-74058664D01*
X105506608Y-73996352D01*
X105503729Y-73969569D01*
X105503729Y-73737581D01*
X105503925Y-73730548D01*
X105506514Y-73684243D01*
X105506514Y-73684238D01*
X105506704Y-73680840D01*
X105503902Y-73627377D01*
X105503729Y-73620782D01*
X105503729Y-72810000D01*
X105498500Y-72736889D01*
X105457304Y-72596589D01*
X105404235Y-72514012D01*
X105383122Y-72481159D01*
X105383120Y-72481156D01*
X105378250Y-72473579D01*
X105372676Y-72468749D01*
X105343525Y-72404922D01*
X105353627Y-72334647D01*
X105373018Y-72304474D01*
X105416274Y-72254555D01*
X105416276Y-72254552D01*
X105422176Y-72247743D01*
X105482919Y-72114734D01*
X105503729Y-71970000D01*
X105503729Y-71954500D01*
X105523731Y-71886379D01*
X105577387Y-71839886D01*
X105629729Y-71828500D01*
X110334088Y-71828500D01*
X110342658Y-71828792D01*
X110392776Y-71832209D01*
X110392780Y-71832209D01*
X110400352Y-71832725D01*
X110407829Y-71831420D01*
X110407830Y-71831420D01*
X110434308Y-71826799D01*
X110463303Y-71821738D01*
X110469821Y-71820777D01*
X110533242Y-71813102D01*
X110540343Y-71810419D01*
X110542952Y-71809778D01*
X110559262Y-71805315D01*
X110561798Y-71804550D01*
X110569284Y-71803243D01*
X110627800Y-71777556D01*
X110633904Y-71775065D01*
X110686548Y-71755173D01*
X110686549Y-71755172D01*
X110693656Y-71752487D01*
X110699919Y-71748183D01*
X110702285Y-71746946D01*
X110717097Y-71738701D01*
X110719351Y-71737368D01*
X110726305Y-71734315D01*
X110777002Y-71695413D01*
X110782332Y-71691541D01*
X110828720Y-71659661D01*
X110828725Y-71659656D01*
X110834981Y-71655357D01*
X110876436Y-71608829D01*
X110881416Y-71603554D01*
X111605520Y-70879450D01*
X111611785Y-70873596D01*
X111649660Y-70840555D01*
X111655385Y-70835561D01*
X111692114Y-70783300D01*
X111696046Y-70778005D01*
X111730791Y-70733694D01*
X111735477Y-70727718D01*
X111738602Y-70720796D01*
X111739964Y-70718548D01*
X111748368Y-70703815D01*
X111749622Y-70701476D01*
X111753990Y-70695261D01*
X111756749Y-70688185D01*
X111756751Y-70688181D01*
X111777200Y-70635731D01*
X111779749Y-70629666D01*
X111806045Y-70571427D01*
X111807429Y-70563962D01*
X111808226Y-70561418D01*
X111812859Y-70545152D01*
X111813521Y-70542572D01*
X111816282Y-70535491D01*
X111824622Y-70472143D01*
X111825653Y-70465629D01*
X111835912Y-70410278D01*
X111837296Y-70402813D01*
X111833709Y-70340602D01*
X111833500Y-70333349D01*
X111833500Y-69853706D01*
X111851045Y-69789569D01*
X111884145Y-69733601D01*
X111889679Y-69714555D01*
X111928767Y-69580008D01*
X111930562Y-69573831D01*
X111931194Y-69565811D01*
X111933307Y-69538958D01*
X111933307Y-69538950D01*
X111933500Y-69536502D01*
X111933500Y-67753498D01*
X111930562Y-67716169D01*
X111884145Y-67556399D01*
X111867107Y-67527589D01*
X111803491Y-67420020D01*
X111803489Y-67420017D01*
X111799453Y-67413193D01*
X111681807Y-67295547D01*
X111674983Y-67291511D01*
X111674980Y-67291509D01*
X111562987Y-67225277D01*
X111538601Y-67210855D01*
X111530990Y-67208644D01*
X111530988Y-67208643D01*
X111424042Y-67177573D01*
X111378831Y-67164438D01*
X111372426Y-67163934D01*
X111372421Y-67163933D01*
X111343958Y-67161693D01*
X111343950Y-67161693D01*
X111341502Y-67161500D01*
X110908498Y-67161500D01*
X110906050Y-67161693D01*
X110906042Y-67161693D01*
X110877579Y-67163933D01*
X110877574Y-67163934D01*
X110871169Y-67164438D01*
X110825958Y-67177573D01*
X110719012Y-67208643D01*
X110719010Y-67208644D01*
X110711399Y-67210855D01*
X110568193Y-67295547D01*
X110565253Y-67298487D01*
X110500729Y-67323821D01*
X110431106Y-67309920D01*
X110412360Y-67297871D01*
X110404677Y-67291911D01*
X110325319Y-67244979D01*
X110276866Y-67193086D01*
X110264161Y-67123235D01*
X110291236Y-67057604D01*
X110349496Y-67017030D01*
X110362862Y-67013364D01*
X110377453Y-67010213D01*
X110526107Y-66960619D01*
X110539286Y-66954445D01*
X110672173Y-66872212D01*
X110683574Y-66863176D01*
X110793986Y-66752571D01*
X110802998Y-66741160D01*
X110885004Y-66608120D01*
X110891151Y-66594939D01*
X110940491Y-66446186D01*
X110943358Y-66432810D01*
X110952672Y-66341903D01*
X110953000Y-66335487D01*
X110953000Y-66312115D01*
X110948525Y-66296876D01*
X110947135Y-66295671D01*
X110939452Y-66294000D01*
X109867000Y-66294000D01*
X109798879Y-66273998D01*
X109752386Y-66220342D01*
X109741000Y-66168000D01*
X109741000Y-65767885D01*
X110249000Y-65767885D01*
X110253475Y-65783124D01*
X110254865Y-65784329D01*
X110262548Y-65786000D01*
X110934885Y-65786000D01*
X110950124Y-65781525D01*
X110951329Y-65780135D01*
X110953000Y-65772452D01*
X110953000Y-65744562D01*
X110952663Y-65738047D01*
X110943106Y-65645943D01*
X110940212Y-65632544D01*
X110890619Y-65483893D01*
X110884445Y-65470714D01*
X110802212Y-65337827D01*
X110793176Y-65326426D01*
X110682571Y-65216014D01*
X110671160Y-65207002D01*
X110538120Y-65124996D01*
X110524939Y-65118849D01*
X110376186Y-65069509D01*
X110362810Y-65066642D01*
X110271903Y-65057328D01*
X110266874Y-65057071D01*
X110251876Y-65061475D01*
X110250671Y-65062865D01*
X110249000Y-65070548D01*
X110249000Y-65767885D01*
X109741000Y-65767885D01*
X109741000Y-65075115D01*
X109736525Y-65059876D01*
X109735135Y-65058671D01*
X109727452Y-65057000D01*
X109724562Y-65057000D01*
X109718047Y-65057337D01*
X109625943Y-65066894D01*
X109612544Y-65069788D01*
X109463893Y-65119381D01*
X109450714Y-65125555D01*
X109317827Y-65207788D01*
X109300689Y-65221371D01*
X109299159Y-65219441D01*
X109247120Y-65247903D01*
X109176301Y-65242887D01*
X109139383Y-65219201D01*
X109138628Y-65220157D01*
X109132882Y-65215619D01*
X109127702Y-65210448D01*
X109098191Y-65192257D01*
X108988331Y-65124538D01*
X108988329Y-65124537D01*
X108982101Y-65120698D01*
X108819757Y-65066851D01*
X108812920Y-65066151D01*
X108812918Y-65066150D01*
X108771599Y-65061917D01*
X108718732Y-65056500D01*
X108171268Y-65056500D01*
X108168022Y-65056837D01*
X108168018Y-65056837D01*
X108138730Y-65059876D01*
X108068981Y-65067113D01*
X108060963Y-65069788D01*
X107913676Y-65118927D01*
X107913674Y-65118928D01*
X107906732Y-65121244D01*
X107761287Y-65211248D01*
X107756114Y-65216430D01*
X107678162Y-65294518D01*
X107615880Y-65328597D01*
X107588989Y-65331500D01*
X107010873Y-65331500D01*
X106987912Y-65329390D01*
X106986282Y-65329088D01*
X106986281Y-65329088D01*
X106978814Y-65327704D01*
X106971234Y-65328141D01*
X106971233Y-65328141D01*
X106916608Y-65331291D01*
X106909354Y-65331500D01*
X105629729Y-65331500D01*
X105561608Y-65311498D01*
X105515115Y-65257842D01*
X105503729Y-65205500D01*
X105503729Y-65190000D01*
X105498500Y-65116889D01*
X105457304Y-64976589D01*
X105392194Y-64875276D01*
X105383122Y-64861159D01*
X105383120Y-64861156D01*
X105378250Y-64853579D01*
X105371440Y-64847678D01*
X105274555Y-64763726D01*
X105274552Y-64763724D01*
X105267743Y-64757824D01*
X105134734Y-64697081D01*
X104990000Y-64676271D01*
X102423134Y-64676271D01*
X102355013Y-64656269D01*
X102308520Y-64602613D01*
X102304817Y-64580043D01*
X102287071Y-64546281D01*
X102145405Y-64404615D01*
X102111379Y-64342303D01*
X102108500Y-64315520D01*
X102108500Y-63953480D01*
X102128502Y-63885359D01*
X102182158Y-63838866D01*
X102252432Y-63828762D01*
X102317012Y-63858256D01*
X102323595Y-63864385D01*
X102647003Y-64187793D01*
X102658777Y-64194223D01*
X102670793Y-64184926D01*
X102700897Y-64141932D01*
X102706377Y-64132441D01*
X102795645Y-63941007D01*
X102799391Y-63930715D01*
X102854059Y-63726691D01*
X102855962Y-63715896D01*
X102874372Y-63505475D01*
X102874372Y-63494525D01*
X102855962Y-63284104D01*
X102854059Y-63273309D01*
X102799391Y-63069285D01*
X102795645Y-63058993D01*
X102706377Y-62867559D01*
X102700897Y-62858068D01*
X102670206Y-62814235D01*
X102659729Y-62805860D01*
X102646282Y-62812928D01*
X102323595Y-63135615D01*
X102261283Y-63169641D01*
X102190468Y-63164576D01*
X102133632Y-63122029D01*
X102108821Y-63055509D01*
X102108500Y-63046520D01*
X102108500Y-62684480D01*
X102128502Y-62616359D01*
X102145405Y-62595385D01*
X102287793Y-62452997D01*
X102294223Y-62441223D01*
X102284926Y-62429207D01*
X102241931Y-62399102D01*
X102232441Y-62393622D01*
X102181251Y-62369752D01*
X102127965Y-62322835D01*
X102108500Y-62255557D01*
X102108500Y-61594500D01*
X102128502Y-61526379D01*
X102182158Y-61479886D01*
X102234500Y-61468500D01*
X113030500Y-61468500D01*
X113098621Y-61488502D01*
G37*
G04 #@! TD.AperFunction*
G04 #@! TA.AperFunction,Conductor*
G36*
X106424532Y-68290606D02*
G01*
X106481368Y-68333153D01*
X106506179Y-68399673D01*
X106506500Y-68408662D01*
X106506500Y-69536502D01*
X106506693Y-69538950D01*
X106506693Y-69538958D01*
X106508807Y-69565811D01*
X106509438Y-69573831D01*
X106511233Y-69580008D01*
X106550322Y-69714555D01*
X106555855Y-69733601D01*
X106559892Y-69740427D01*
X106636509Y-69869980D01*
X106636511Y-69869983D01*
X106640547Y-69876807D01*
X106758193Y-69994453D01*
X106765016Y-69998488D01*
X106765020Y-69998491D01*
X106863259Y-70056589D01*
X106901399Y-70079145D01*
X106909010Y-70081356D01*
X106909012Y-70081357D01*
X106961231Y-70096528D01*
X107061169Y-70125562D01*
X107067574Y-70126066D01*
X107067579Y-70126067D01*
X107096042Y-70128307D01*
X107096050Y-70128307D01*
X107098498Y-70128500D01*
X107531502Y-70128500D01*
X107533950Y-70128307D01*
X107533958Y-70128307D01*
X107562421Y-70126067D01*
X107562426Y-70126066D01*
X107568831Y-70125562D01*
X107668769Y-70096528D01*
X107720988Y-70081357D01*
X107720990Y-70081356D01*
X107728601Y-70079145D01*
X107871807Y-69994453D01*
X107874489Y-69991771D01*
X107938861Y-69966498D01*
X108008484Y-69980400D01*
X108024312Y-69990572D01*
X108028193Y-69994453D01*
X108171399Y-70079145D01*
X108179010Y-70081356D01*
X108179012Y-70081357D01*
X108231231Y-70096528D01*
X108331169Y-70125562D01*
X108337574Y-70126066D01*
X108337579Y-70126067D01*
X108366042Y-70128307D01*
X108366050Y-70128307D01*
X108368498Y-70128500D01*
X108801502Y-70128500D01*
X108803950Y-70128307D01*
X108803958Y-70128307D01*
X108832421Y-70126067D01*
X108832426Y-70126066D01*
X108838831Y-70125562D01*
X108938769Y-70096528D01*
X108990988Y-70081357D01*
X108990990Y-70081356D01*
X108998601Y-70079145D01*
X109141807Y-69994453D01*
X109144747Y-69991513D01*
X109209271Y-69966179D01*
X109278894Y-69980080D01*
X109297640Y-69992129D01*
X109305323Y-69998089D01*
X109434779Y-70074648D01*
X109449210Y-70080893D01*
X109583605Y-70119939D01*
X109597706Y-70119899D01*
X109601000Y-70112630D01*
X109601000Y-68517000D01*
X109621002Y-68448879D01*
X109674658Y-68402386D01*
X109727000Y-68391000D01*
X109983000Y-68391000D01*
X110051121Y-68411002D01*
X110097614Y-68464658D01*
X110109000Y-68517000D01*
X110109000Y-70106878D01*
X110113475Y-70122117D01*
X110134788Y-70140585D01*
X110144928Y-70145217D01*
X110183306Y-70204947D01*
X110183299Y-70275944D01*
X110151501Y-70329529D01*
X110106435Y-70374595D01*
X110044123Y-70408621D01*
X110017340Y-70411500D01*
X105629729Y-70411500D01*
X105561608Y-70391498D01*
X105515115Y-70337842D01*
X105503729Y-70285500D01*
X105503729Y-70270000D01*
X105498500Y-70196889D01*
X105464577Y-70081357D01*
X105459843Y-70065235D01*
X105459842Y-70065233D01*
X105457304Y-70056589D01*
X105419708Y-69998089D01*
X105383122Y-69941159D01*
X105383120Y-69941156D01*
X105378250Y-69933579D01*
X105372676Y-69928749D01*
X105343525Y-69864922D01*
X105353627Y-69794647D01*
X105373018Y-69764474D01*
X105416274Y-69714555D01*
X105416276Y-69714552D01*
X105422176Y-69707743D01*
X105482919Y-69574734D01*
X105503729Y-69430000D01*
X105503729Y-69160262D01*
X105523731Y-69092141D01*
X105535659Y-69076436D01*
X105542443Y-69068823D01*
X105547418Y-69063554D01*
X106291405Y-68319567D01*
X106353717Y-68285541D01*
X106424532Y-68290606D01*
G37*
G04 #@! TD.AperFunction*
M02*
