G04 #@! TF.GenerationSoftware,KiCad,Pcbnew,(6.0.8)*
G04 #@! TF.CreationDate,2022-11-07T23:28:12+01:00*
G04 #@! TF.ProjectId,15_XCAN,31355f58-4341-44e2-9e6b-696361645f70,rev?*
G04 #@! TF.SameCoordinates,Original*
G04 #@! TF.FileFunction,Copper,L2,Bot*
G04 #@! TF.FilePolarity,Positive*
%FSLAX46Y46*%
G04 Gerber Fmt 4.6, Leading zero omitted, Abs format (unit mm)*
G04 Created by KiCad (PCBNEW (6.0.8)) date 2022-11-07 23:28:12*
%MOMM*%
%LPD*%
G01*
G04 APERTURE LIST*
G04 #@! TA.AperFunction,ComponentPad*
%ADD10R,1.700000X1.700000*%
G04 #@! TD*
G04 #@! TA.AperFunction,ComponentPad*
%ADD11O,1.700000X1.700000*%
G04 #@! TD*
G04 #@! TA.AperFunction,ViaPad*
%ADD12C,1.000000*%
G04 #@! TD*
G04 #@! TA.AperFunction,Conductor*
%ADD13C,0.400000*%
G04 #@! TD*
G04 APERTURE END LIST*
D10*
X111760000Y-63500000D03*
X104140000Y-63500000D03*
D11*
X104140000Y-66040000D03*
X104140000Y-68580000D03*
X104140000Y-71120000D03*
X104140000Y-73660000D03*
X104140000Y-76200000D03*
D12*
X106680000Y-62230000D03*
X109220000Y-62230000D03*
X106680000Y-77470000D03*
X109220000Y-77470000D03*
D13*
X106680000Y-62230000D02*
X109220000Y-62230000D01*
X106680000Y-77470000D02*
X109220000Y-77470000D01*
X109220000Y-62230000D02*
X109220000Y-77470000D01*
G04 #@! TA.AperFunction,Conductor*
G36*
X113098621Y-61488502D02*
G01*
X113145114Y-61542158D01*
X113156500Y-61594500D01*
X113156500Y-62172803D01*
X113136498Y-62240924D01*
X113082842Y-62287417D01*
X113012568Y-62297521D01*
X112954935Y-62273629D01*
X112863649Y-62205214D01*
X112848054Y-62196676D01*
X112727606Y-62151522D01*
X112712351Y-62147895D01*
X112661486Y-62142369D01*
X112654672Y-62142000D01*
X112032115Y-62142000D01*
X112016876Y-62146475D01*
X112015671Y-62147865D01*
X112014000Y-62155548D01*
X112014000Y-64839884D01*
X112018475Y-64855123D01*
X112019865Y-64856328D01*
X112027548Y-64857999D01*
X112654669Y-64857999D01*
X112661490Y-64857629D01*
X112712352Y-64852105D01*
X112727604Y-64848479D01*
X112848054Y-64803324D01*
X112863649Y-64794786D01*
X112954935Y-64726371D01*
X113021442Y-64701523D01*
X113090824Y-64716576D01*
X113141054Y-64766750D01*
X113156500Y-64827197D01*
X113156500Y-77470500D01*
X113136498Y-77538621D01*
X113082842Y-77585114D01*
X113030500Y-77596500D01*
X104915333Y-77596500D01*
X104847212Y-77576498D01*
X104800719Y-77522842D01*
X104790615Y-77452568D01*
X104820109Y-77387988D01*
X104842165Y-77367921D01*
X104910415Y-77319239D01*
X105019860Y-77241173D01*
X105178096Y-77083489D01*
X105237594Y-77000689D01*
X105305435Y-76906277D01*
X105308453Y-76902077D01*
X105407430Y-76701811D01*
X105472370Y-76488069D01*
X105501529Y-76266590D01*
X105503156Y-76200000D01*
X105484852Y-75977361D01*
X105430431Y-75760702D01*
X105341354Y-75555840D01*
X105220014Y-75368277D01*
X105069670Y-75203051D01*
X105065619Y-75199852D01*
X105065615Y-75199848D01*
X104898414Y-75067800D01*
X104898410Y-75067798D01*
X104894359Y-75064598D01*
X104853053Y-75041796D01*
X104803084Y-74991364D01*
X104788312Y-74921921D01*
X104813428Y-74855516D01*
X104840780Y-74828909D01*
X104884603Y-74797650D01*
X105019860Y-74701173D01*
X105178096Y-74543489D01*
X105237594Y-74460689D01*
X105305435Y-74366277D01*
X105308453Y-74362077D01*
X105407430Y-74161811D01*
X105472370Y-73948069D01*
X105501529Y-73726590D01*
X105503156Y-73660000D01*
X105484852Y-73437361D01*
X105430431Y-73220702D01*
X105341354Y-73015840D01*
X105220014Y-72828277D01*
X105069670Y-72663051D01*
X105065619Y-72659852D01*
X105065615Y-72659848D01*
X104898414Y-72527800D01*
X104898410Y-72527798D01*
X104894359Y-72524598D01*
X104853053Y-72501796D01*
X104803084Y-72451364D01*
X104788312Y-72381921D01*
X104813428Y-72315516D01*
X104840780Y-72288909D01*
X104884603Y-72257650D01*
X105019860Y-72161173D01*
X105178096Y-72003489D01*
X105237594Y-71920689D01*
X105305435Y-71826277D01*
X105308453Y-71822077D01*
X105407430Y-71621811D01*
X105472370Y-71408069D01*
X105501529Y-71186590D01*
X105503156Y-71120000D01*
X105484852Y-70897361D01*
X105430431Y-70680702D01*
X105341354Y-70475840D01*
X105220014Y-70288277D01*
X105069670Y-70123051D01*
X105065619Y-70119852D01*
X105065615Y-70119848D01*
X104898414Y-69987800D01*
X104898410Y-69987798D01*
X104894359Y-69984598D01*
X104853053Y-69961796D01*
X104803084Y-69911364D01*
X104788312Y-69841921D01*
X104813428Y-69775516D01*
X104840780Y-69748909D01*
X104884603Y-69717650D01*
X105019860Y-69621173D01*
X105178096Y-69463489D01*
X105237594Y-69380689D01*
X105305435Y-69286277D01*
X105308453Y-69282077D01*
X105407430Y-69081811D01*
X105472370Y-68868069D01*
X105501529Y-68646590D01*
X105503156Y-68580000D01*
X105484852Y-68357361D01*
X105430431Y-68140702D01*
X105341354Y-67935840D01*
X105220014Y-67748277D01*
X105069670Y-67583051D01*
X105065619Y-67579852D01*
X105065615Y-67579848D01*
X104898414Y-67447800D01*
X104898410Y-67447798D01*
X104894359Y-67444598D01*
X104853053Y-67421796D01*
X104803084Y-67371364D01*
X104788312Y-67301921D01*
X104813428Y-67235516D01*
X104840780Y-67208909D01*
X104884603Y-67177650D01*
X105019860Y-67081173D01*
X105178096Y-66923489D01*
X105237594Y-66840689D01*
X105305435Y-66746277D01*
X105308453Y-66742077D01*
X105407430Y-66541811D01*
X105472370Y-66328069D01*
X105501529Y-66106590D01*
X105503156Y-66040000D01*
X105484852Y-65817361D01*
X105430431Y-65600702D01*
X105341354Y-65395840D01*
X105220014Y-65208277D01*
X105216540Y-65204459D01*
X105216533Y-65204450D01*
X105072435Y-65046088D01*
X105041383Y-64982242D01*
X105049779Y-64911744D01*
X105094956Y-64856976D01*
X105121400Y-64843307D01*
X105228052Y-64803325D01*
X105243649Y-64794786D01*
X105345724Y-64718285D01*
X105358285Y-64705724D01*
X105434786Y-64603649D01*
X105443324Y-64588054D01*
X105488478Y-64467606D01*
X105492105Y-64452351D01*
X105497631Y-64401486D01*
X105498000Y-64394672D01*
X105498000Y-64394669D01*
X110402001Y-64394669D01*
X110402371Y-64401490D01*
X110407895Y-64452352D01*
X110411521Y-64467604D01*
X110456676Y-64588054D01*
X110465214Y-64603649D01*
X110541715Y-64705724D01*
X110554276Y-64718285D01*
X110656351Y-64794786D01*
X110671946Y-64803324D01*
X110792394Y-64848478D01*
X110807649Y-64852105D01*
X110858514Y-64857631D01*
X110865328Y-64858000D01*
X111487885Y-64858000D01*
X111503124Y-64853525D01*
X111504329Y-64852135D01*
X111506000Y-64844452D01*
X111506000Y-63772115D01*
X111501525Y-63756876D01*
X111500135Y-63755671D01*
X111492452Y-63754000D01*
X110420116Y-63754000D01*
X110404877Y-63758475D01*
X110403672Y-63759865D01*
X110402001Y-63767548D01*
X110402001Y-64394669D01*
X105498000Y-64394669D01*
X105498000Y-63772115D01*
X105493525Y-63756876D01*
X105492135Y-63755671D01*
X105484452Y-63754000D01*
X102800116Y-63754000D01*
X102784877Y-63758475D01*
X102783672Y-63759865D01*
X102782001Y-63767548D01*
X102782001Y-64394669D01*
X102782371Y-64401490D01*
X102787895Y-64452352D01*
X102791521Y-64467604D01*
X102836676Y-64588054D01*
X102845214Y-64603649D01*
X102921715Y-64705724D01*
X102934276Y-64718285D01*
X103036351Y-64794786D01*
X103051946Y-64803324D01*
X103160827Y-64844142D01*
X103217591Y-64886784D01*
X103242291Y-64953345D01*
X103227083Y-65022694D01*
X103207691Y-65049175D01*
X103084200Y-65178401D01*
X103080629Y-65182138D01*
X102954743Y-65366680D01*
X102860688Y-65569305D01*
X102800989Y-65784570D01*
X102777251Y-66006695D01*
X102777548Y-66011848D01*
X102777548Y-66011851D01*
X102783011Y-66106590D01*
X102790110Y-66229715D01*
X102791247Y-66234761D01*
X102791248Y-66234767D01*
X102811119Y-66322939D01*
X102839222Y-66447639D01*
X102923266Y-66654616D01*
X103039987Y-66845088D01*
X103186250Y-67013938D01*
X103358126Y-67156632D01*
X103428595Y-67197811D01*
X103431445Y-67199476D01*
X103480169Y-67251114D01*
X103493240Y-67320897D01*
X103466509Y-67386669D01*
X103426055Y-67420027D01*
X103413607Y-67426507D01*
X103409474Y-67429610D01*
X103409471Y-67429612D01*
X103385247Y-67447800D01*
X103234965Y-67560635D01*
X103080629Y-67722138D01*
X102954743Y-67906680D01*
X102860688Y-68109305D01*
X102800989Y-68324570D01*
X102777251Y-68546695D01*
X102777548Y-68551848D01*
X102777548Y-68551851D01*
X102783011Y-68646590D01*
X102790110Y-68769715D01*
X102791247Y-68774761D01*
X102791248Y-68774767D01*
X102811119Y-68862939D01*
X102839222Y-68987639D01*
X102923266Y-69194616D01*
X103039987Y-69385088D01*
X103186250Y-69553938D01*
X103358126Y-69696632D01*
X103428595Y-69737811D01*
X103431445Y-69739476D01*
X103480169Y-69791114D01*
X103493240Y-69860897D01*
X103466509Y-69926669D01*
X103426055Y-69960027D01*
X103413607Y-69966507D01*
X103409474Y-69969610D01*
X103409471Y-69969612D01*
X103385247Y-69987800D01*
X103234965Y-70100635D01*
X103080629Y-70262138D01*
X102954743Y-70446680D01*
X102860688Y-70649305D01*
X102800989Y-70864570D01*
X102777251Y-71086695D01*
X102777548Y-71091848D01*
X102777548Y-71091851D01*
X102783011Y-71186590D01*
X102790110Y-71309715D01*
X102791247Y-71314761D01*
X102791248Y-71314767D01*
X102811119Y-71402939D01*
X102839222Y-71527639D01*
X102923266Y-71734616D01*
X103039987Y-71925088D01*
X103186250Y-72093938D01*
X103358126Y-72236632D01*
X103428595Y-72277811D01*
X103431445Y-72279476D01*
X103480169Y-72331114D01*
X103493240Y-72400897D01*
X103466509Y-72466669D01*
X103426055Y-72500027D01*
X103413607Y-72506507D01*
X103409474Y-72509610D01*
X103409471Y-72509612D01*
X103385247Y-72527800D01*
X103234965Y-72640635D01*
X103080629Y-72802138D01*
X102954743Y-72986680D01*
X102860688Y-73189305D01*
X102800989Y-73404570D01*
X102777251Y-73626695D01*
X102777548Y-73631848D01*
X102777548Y-73631851D01*
X102783011Y-73726590D01*
X102790110Y-73849715D01*
X102791247Y-73854761D01*
X102791248Y-73854767D01*
X102811119Y-73942939D01*
X102839222Y-74067639D01*
X102923266Y-74274616D01*
X103039987Y-74465088D01*
X103186250Y-74633938D01*
X103358126Y-74776632D01*
X103428595Y-74817811D01*
X103431445Y-74819476D01*
X103480169Y-74871114D01*
X103493240Y-74940897D01*
X103466509Y-75006669D01*
X103426055Y-75040027D01*
X103413607Y-75046507D01*
X103409474Y-75049610D01*
X103409471Y-75049612D01*
X103385247Y-75067800D01*
X103234965Y-75180635D01*
X103080629Y-75342138D01*
X102954743Y-75526680D01*
X102860688Y-75729305D01*
X102800989Y-75944570D01*
X102777251Y-76166695D01*
X102777548Y-76171848D01*
X102777548Y-76171851D01*
X102783011Y-76266590D01*
X102790110Y-76389715D01*
X102791247Y-76394761D01*
X102791248Y-76394767D01*
X102811119Y-76482939D01*
X102839222Y-76607639D01*
X102923266Y-76814616D01*
X103039987Y-77005088D01*
X103186250Y-77173938D01*
X103358126Y-77316632D01*
X103435273Y-77361713D01*
X103483995Y-77413351D01*
X103497066Y-77483134D01*
X103470334Y-77548906D01*
X103412287Y-77589784D01*
X103371701Y-77596500D01*
X102234500Y-77596500D01*
X102166379Y-77576498D01*
X102119886Y-77522842D01*
X102108500Y-77470500D01*
X102108500Y-63227885D01*
X102782000Y-63227885D01*
X102786475Y-63243124D01*
X102787865Y-63244329D01*
X102795548Y-63246000D01*
X103867885Y-63246000D01*
X103883124Y-63241525D01*
X103884329Y-63240135D01*
X103886000Y-63232452D01*
X103886000Y-63227885D01*
X104394000Y-63227885D01*
X104398475Y-63243124D01*
X104399865Y-63244329D01*
X104407548Y-63246000D01*
X105479884Y-63246000D01*
X105495123Y-63241525D01*
X105496328Y-63240135D01*
X105497999Y-63232452D01*
X105497999Y-63227885D01*
X110402000Y-63227885D01*
X110406475Y-63243124D01*
X110407865Y-63244329D01*
X110415548Y-63246000D01*
X111487885Y-63246000D01*
X111503124Y-63241525D01*
X111504329Y-63240135D01*
X111506000Y-63232452D01*
X111506000Y-62160116D01*
X111501525Y-62144877D01*
X111500135Y-62143672D01*
X111492452Y-62142001D01*
X110865331Y-62142001D01*
X110858510Y-62142371D01*
X110807648Y-62147895D01*
X110792396Y-62151521D01*
X110671946Y-62196676D01*
X110656351Y-62205214D01*
X110554276Y-62281715D01*
X110541715Y-62294276D01*
X110465214Y-62396351D01*
X110456676Y-62411946D01*
X110411522Y-62532394D01*
X110407895Y-62547649D01*
X110402369Y-62598514D01*
X110402000Y-62605328D01*
X110402000Y-63227885D01*
X105497999Y-63227885D01*
X105497999Y-62605331D01*
X105497629Y-62598510D01*
X105492105Y-62547648D01*
X105488479Y-62532396D01*
X105443324Y-62411946D01*
X105434786Y-62396351D01*
X105358285Y-62294276D01*
X105345724Y-62281715D01*
X105243649Y-62205214D01*
X105228054Y-62196676D01*
X105107606Y-62151522D01*
X105092351Y-62147895D01*
X105041486Y-62142369D01*
X105034672Y-62142000D01*
X104412115Y-62142000D01*
X104396876Y-62146475D01*
X104395671Y-62147865D01*
X104394000Y-62155548D01*
X104394000Y-63227885D01*
X103886000Y-63227885D01*
X103886000Y-62160116D01*
X103881525Y-62144877D01*
X103880135Y-62143672D01*
X103872452Y-62142001D01*
X103245331Y-62142001D01*
X103238510Y-62142371D01*
X103187648Y-62147895D01*
X103172396Y-62151521D01*
X103051946Y-62196676D01*
X103036351Y-62205214D01*
X102934276Y-62281715D01*
X102921715Y-62294276D01*
X102845214Y-62396351D01*
X102836676Y-62411946D01*
X102791522Y-62532394D01*
X102787895Y-62547649D01*
X102782369Y-62598514D01*
X102782000Y-62605328D01*
X102782000Y-63227885D01*
X102108500Y-63227885D01*
X102108500Y-61594500D01*
X102128502Y-61526379D01*
X102182158Y-61479886D01*
X102234500Y-61468500D01*
X113030500Y-61468500D01*
X113098621Y-61488502D01*
G37*
G04 #@! TD.AperFunction*
M02*
