%TF.GenerationSoftware,KiCad,Pcbnew,(5.1.9)-1*%
%TF.CreationDate,2021-05-27T15:02:39+02:00*%
%TF.ProjectId,15_XCAN,31355f58-4341-44e2-9e6b-696361645f70,rev?*%
%TF.SameCoordinates,Original*%
%TF.FileFunction,Legend,Bot*%
%TF.FilePolarity,Positive*%
%FSLAX46Y46*%
G04 Gerber Fmt 4.6, Leading zero omitted, Abs format (unit mm)*
G04 Created by KiCad (PCBNEW (5.1.9)-1) date 2021-05-27 15:02:39*
%MOMM*%
%LPD*%
G01*
G04 APERTURE LIST*
%ADD10C,0.150000*%
%TA.AperFunction,Profile*%
%ADD11C,0.050000*%
%TD*%
G04 APERTURE END LIST*
D10*
X106513333Y-68127619D02*
X106180000Y-68603809D01*
X105941904Y-68127619D02*
X105941904Y-69127619D01*
X106322857Y-69127619D01*
X106418095Y-69080000D01*
X106465714Y-69032380D01*
X106513333Y-68937142D01*
X106513333Y-68794285D01*
X106465714Y-68699047D01*
X106418095Y-68651428D01*
X106322857Y-68603809D01*
X105941904Y-68603809D01*
X106846666Y-69127619D02*
X107513333Y-68127619D01*
X107513333Y-69127619D02*
X106846666Y-68127619D01*
X106402380Y-78382857D02*
X106354761Y-78335238D01*
X106211904Y-78287619D01*
X106116666Y-78287619D01*
X105973809Y-78335238D01*
X105878571Y-78430476D01*
X105830952Y-78525714D01*
X105783333Y-78716190D01*
X105783333Y-78859047D01*
X105830952Y-79049523D01*
X105878571Y-79144761D01*
X105973809Y-79240000D01*
X106116666Y-79287619D01*
X106211904Y-79287619D01*
X106354761Y-79240000D01*
X106402380Y-79192380D01*
X106783333Y-78573333D02*
X107259523Y-78573333D01*
X106688095Y-78287619D02*
X107021428Y-79287619D01*
X107354761Y-78287619D01*
X107688095Y-78287619D02*
X107688095Y-79287619D01*
X108259523Y-78287619D01*
X108259523Y-79287619D01*
X108497619Y-78192380D02*
X109259523Y-78192380D01*
X109497619Y-78287619D02*
X109497619Y-79287619D01*
X109497619Y-78811428D02*
X110069047Y-78811428D01*
X110069047Y-78287619D02*
X110069047Y-79287619D01*
X106521428Y-75842857D02*
X106473809Y-75795238D01*
X106330952Y-75747619D01*
X106235714Y-75747619D01*
X106092857Y-75795238D01*
X105997619Y-75890476D01*
X105950000Y-75985714D01*
X105902380Y-76176190D01*
X105902380Y-76319047D01*
X105950000Y-76509523D01*
X105997619Y-76604761D01*
X106092857Y-76700000D01*
X106235714Y-76747619D01*
X106330952Y-76747619D01*
X106473809Y-76700000D01*
X106521428Y-76652380D01*
X106902380Y-76033333D02*
X107378571Y-76033333D01*
X106807142Y-75747619D02*
X107140476Y-76747619D01*
X107473809Y-75747619D01*
X107807142Y-75747619D02*
X107807142Y-76747619D01*
X108378571Y-75747619D01*
X108378571Y-76747619D01*
X108616666Y-75652380D02*
X109378571Y-75652380D01*
X110092857Y-75747619D02*
X109616666Y-75747619D01*
X109616666Y-76747619D01*
X105918095Y-71667619D02*
X106489523Y-71667619D01*
X106203809Y-70667619D02*
X106203809Y-71667619D01*
X106727619Y-71667619D02*
X107394285Y-70667619D01*
X107394285Y-71667619D02*
X106727619Y-70667619D01*
X106489523Y-66587619D02*
X106013333Y-66587619D01*
X105965714Y-66111428D01*
X106013333Y-66159047D01*
X106108571Y-66206666D01*
X106346666Y-66206666D01*
X106441904Y-66159047D01*
X106489523Y-66111428D01*
X106537142Y-66016190D01*
X106537142Y-65778095D01*
X106489523Y-65682857D01*
X106441904Y-65635238D01*
X106346666Y-65587619D01*
X106108571Y-65587619D01*
X106013333Y-65635238D01*
X105965714Y-65682857D01*
X106822857Y-66587619D02*
X107156190Y-65587619D01*
X107489523Y-66587619D01*
X105918095Y-64000000D02*
X105822857Y-64047619D01*
X105680000Y-64047619D01*
X105537142Y-64000000D01*
X105441904Y-63904761D01*
X105394285Y-63809523D01*
X105346666Y-63619047D01*
X105346666Y-63476190D01*
X105394285Y-63285714D01*
X105441904Y-63190476D01*
X105537142Y-63095238D01*
X105680000Y-63047619D01*
X105775238Y-63047619D01*
X105918095Y-63095238D01*
X105965714Y-63142857D01*
X105965714Y-63476190D01*
X105775238Y-63476190D01*
X106394285Y-63047619D02*
X106394285Y-64047619D01*
X106965714Y-63047619D01*
X106965714Y-64047619D01*
X107441904Y-63047619D02*
X107441904Y-64047619D01*
X107680000Y-64047619D01*
X107822857Y-64000000D01*
X107918095Y-63904761D01*
X107965714Y-63809523D01*
X108013333Y-63619047D01*
X108013333Y-63476190D01*
X107965714Y-63285714D01*
X107918095Y-63190476D01*
X107822857Y-63095238D01*
X107680000Y-63047619D01*
X107441904Y-63047619D01*
D11*
X114935000Y-60960000D02*
X120650000Y-60960000D01*
X114935000Y-62230000D02*
X114935000Y-60960000D01*
X113665000Y-62230000D02*
X114935000Y-62230000D01*
X113665000Y-60960000D02*
X113665000Y-62230000D01*
X114935000Y-81280000D02*
X120650000Y-81280000D01*
X114935000Y-80010000D02*
X114935000Y-81280000D01*
X113665000Y-80010000D02*
X114935000Y-80010000D01*
X113665000Y-81280000D02*
X113665000Y-80010000D01*
X101600000Y-62230000D02*
X101600000Y-60960000D01*
X100330000Y-62230000D02*
X101600000Y-62230000D01*
X100330000Y-64770000D02*
X100330000Y-62230000D01*
X100330000Y-72390000D02*
X100330000Y-67310000D01*
X101600000Y-72390000D02*
X100330000Y-72390000D01*
X101600000Y-74930000D02*
X101600000Y-72390000D01*
X100330000Y-74930000D02*
X101600000Y-74930000D01*
X120650000Y-60960000D02*
X120650000Y-81280000D01*
X101600000Y-60960000D02*
X113665000Y-60960000D01*
X101600000Y-80010000D02*
X101600000Y-81280000D01*
X100330000Y-80010000D02*
X101600000Y-80010000D01*
X100330000Y-64770000D02*
X100330000Y-67310000D01*
D10*
X116245714Y-67143809D02*
X117055238Y-67143809D01*
X117150476Y-67096190D01*
X117198095Y-67048571D01*
X117245714Y-66953333D01*
X117245714Y-66810476D01*
X117198095Y-66715238D01*
X116864761Y-67143809D02*
X116912380Y-67048571D01*
X116912380Y-66858095D01*
X116864761Y-66762857D01*
X116817142Y-66715238D01*
X116721904Y-66667619D01*
X116436190Y-66667619D01*
X116340952Y-66715238D01*
X116293333Y-66762857D01*
X116245714Y-66858095D01*
X116245714Y-67048571D01*
X116293333Y-67143809D01*
X116912380Y-67620000D02*
X116245714Y-67620000D01*
X115912380Y-67620000D02*
X115960000Y-67572380D01*
X116007619Y-67620000D01*
X115960000Y-67667619D01*
X115912380Y-67620000D01*
X116007619Y-67620000D01*
X116245714Y-67953333D02*
X116245714Y-68334285D01*
X115912380Y-68096190D02*
X116769523Y-68096190D01*
X116864761Y-68143809D01*
X116912380Y-68239047D01*
X116912380Y-68334285D01*
X116912380Y-68667619D02*
X115912380Y-68667619D01*
X116912380Y-69096190D02*
X116388571Y-69096190D01*
X116293333Y-69048571D01*
X116245714Y-68953333D01*
X116245714Y-68810476D01*
X116293333Y-68715238D01*
X116340952Y-68667619D01*
X116245714Y-70000952D02*
X116912380Y-70000952D01*
X116245714Y-69572380D02*
X116769523Y-69572380D01*
X116864761Y-69620000D01*
X116912380Y-69715238D01*
X116912380Y-69858095D01*
X116864761Y-69953333D01*
X116817142Y-70000952D01*
X116912380Y-70477142D02*
X115912380Y-70477142D01*
X116293333Y-70477142D02*
X116245714Y-70572380D01*
X116245714Y-70762857D01*
X116293333Y-70858095D01*
X116340952Y-70905714D01*
X116436190Y-70953333D01*
X116721904Y-70953333D01*
X116817142Y-70905714D01*
X116864761Y-70858095D01*
X116912380Y-70762857D01*
X116912380Y-70572380D01*
X116864761Y-70477142D01*
X116817142Y-71381904D02*
X116864761Y-71429523D01*
X116912380Y-71381904D01*
X116864761Y-71334285D01*
X116817142Y-71381904D01*
X116912380Y-71381904D01*
X116864761Y-72286666D02*
X116912380Y-72191428D01*
X116912380Y-72000952D01*
X116864761Y-71905714D01*
X116817142Y-71858095D01*
X116721904Y-71810476D01*
X116436190Y-71810476D01*
X116340952Y-71858095D01*
X116293333Y-71905714D01*
X116245714Y-72000952D01*
X116245714Y-72191428D01*
X116293333Y-72286666D01*
X116912380Y-72858095D02*
X116864761Y-72762857D01*
X116817142Y-72715238D01*
X116721904Y-72667619D01*
X116436190Y-72667619D01*
X116340952Y-72715238D01*
X116293333Y-72762857D01*
X116245714Y-72858095D01*
X116245714Y-73000952D01*
X116293333Y-73096190D01*
X116340952Y-73143809D01*
X116436190Y-73191428D01*
X116721904Y-73191428D01*
X116817142Y-73143809D01*
X116864761Y-73096190D01*
X116912380Y-73000952D01*
X116912380Y-72858095D01*
X116912380Y-73620000D02*
X116245714Y-73620000D01*
X116340952Y-73620000D02*
X116293333Y-73667619D01*
X116245714Y-73762857D01*
X116245714Y-73905714D01*
X116293333Y-74000952D01*
X116388571Y-74048571D01*
X116912380Y-74048571D01*
X116388571Y-74048571D02*
X116293333Y-74096190D01*
X116245714Y-74191428D01*
X116245714Y-74334285D01*
X116293333Y-74429523D01*
X116388571Y-74477142D01*
X116912380Y-74477142D01*
X115864761Y-75667619D02*
X117150476Y-74810476D01*
X117562380Y-65500952D02*
X117562380Y-66072380D01*
X118562380Y-65786666D02*
X117562380Y-65786666D01*
X118562380Y-66405714D02*
X117562380Y-66405714D01*
X118562380Y-66834285D02*
X118038571Y-66834285D01*
X117943333Y-66786666D01*
X117895714Y-66691428D01*
X117895714Y-66548571D01*
X117943333Y-66453333D01*
X117990952Y-66405714D01*
X118562380Y-67310476D02*
X117895714Y-67310476D01*
X117562380Y-67310476D02*
X117610000Y-67262857D01*
X117657619Y-67310476D01*
X117610000Y-67358095D01*
X117562380Y-67310476D01*
X117657619Y-67310476D01*
X118514761Y-68167619D02*
X118562380Y-68072380D01*
X118562380Y-67881904D01*
X118514761Y-67786666D01*
X118419523Y-67739047D01*
X118038571Y-67739047D01*
X117943333Y-67786666D01*
X117895714Y-67881904D01*
X117895714Y-68072380D01*
X117943333Y-68167619D01*
X118038571Y-68215238D01*
X118133809Y-68215238D01*
X118229047Y-67739047D01*
X118562380Y-68643809D02*
X117895714Y-68643809D01*
X118086190Y-68643809D02*
X117990952Y-68691428D01*
X117943333Y-68739047D01*
X117895714Y-68834285D01*
X117895714Y-68929523D01*
X118562380Y-69262857D02*
X117895714Y-69262857D01*
X118086190Y-69262857D02*
X117990952Y-69310476D01*
X117943333Y-69358095D01*
X117895714Y-69453333D01*
X117895714Y-69548571D01*
X117895714Y-69786666D02*
X118562380Y-70024761D01*
X117895714Y-70262857D02*
X118562380Y-70024761D01*
X118800476Y-69929523D01*
X118848095Y-69881904D01*
X118895714Y-69786666D01*
X117562380Y-70834285D02*
X117562380Y-71024761D01*
X117610000Y-71120000D01*
X117705238Y-71215238D01*
X117895714Y-71262857D01*
X118229047Y-71262857D01*
X118419523Y-71215238D01*
X118514761Y-71120000D01*
X118562380Y-71024761D01*
X118562380Y-70834285D01*
X118514761Y-70739047D01*
X118419523Y-70643809D01*
X118229047Y-70596190D01*
X117895714Y-70596190D01*
X117705238Y-70643809D01*
X117610000Y-70739047D01*
X117562380Y-70834285D01*
X118562380Y-71691428D02*
X117895714Y-71691428D01*
X118086190Y-71691428D02*
X117990952Y-71739047D01*
X117943333Y-71786666D01*
X117895714Y-71881904D01*
X117895714Y-71977142D01*
X118562380Y-72453333D02*
X118514761Y-72358095D01*
X118419523Y-72310476D01*
X117562380Y-72310476D01*
X118562380Y-73262857D02*
X118038571Y-73262857D01*
X117943333Y-73215238D01*
X117895714Y-73120000D01*
X117895714Y-72929523D01*
X117943333Y-72834285D01*
X118514761Y-73262857D02*
X118562380Y-73167619D01*
X118562380Y-72929523D01*
X118514761Y-72834285D01*
X118419523Y-72786666D01*
X118324285Y-72786666D01*
X118229047Y-72834285D01*
X118181428Y-72929523D01*
X118181428Y-73167619D01*
X118133809Y-73262857D01*
X117895714Y-73739047D02*
X118562380Y-73739047D01*
X117990952Y-73739047D02*
X117943333Y-73786666D01*
X117895714Y-73881904D01*
X117895714Y-74024761D01*
X117943333Y-74120000D01*
X118038571Y-74167619D01*
X118562380Y-74167619D01*
X118562380Y-75072380D02*
X117562380Y-75072380D01*
X118514761Y-75072380D02*
X118562380Y-74977142D01*
X118562380Y-74786666D01*
X118514761Y-74691428D01*
X118467142Y-74643809D01*
X118371904Y-74596190D01*
X118086190Y-74596190D01*
X117990952Y-74643809D01*
X117943333Y-74691428D01*
X117895714Y-74786666D01*
X117895714Y-74977142D01*
X117943333Y-75072380D01*
X118562380Y-75548571D02*
X117895714Y-75548571D01*
X117562380Y-75548571D02*
X117610000Y-75500952D01*
X117657619Y-75548571D01*
X117610000Y-75596190D01*
X117562380Y-75548571D01*
X117657619Y-75548571D01*
X117514761Y-76739047D02*
X118800476Y-75881904D01*
X120212380Y-68620000D02*
X120212380Y-68048571D01*
X120212380Y-68334285D02*
X119212380Y-68334285D01*
X119355238Y-68239047D01*
X119450476Y-68143809D01*
X119498095Y-68048571D01*
X119212380Y-69524761D02*
X119212380Y-69048571D01*
X119688571Y-69000952D01*
X119640952Y-69048571D01*
X119593333Y-69143809D01*
X119593333Y-69381904D01*
X119640952Y-69477142D01*
X119688571Y-69524761D01*
X119783809Y-69572380D01*
X120021904Y-69572380D01*
X120117142Y-69524761D01*
X120164761Y-69477142D01*
X120212380Y-69381904D01*
X120212380Y-69143809D01*
X120164761Y-69048571D01*
X120117142Y-69000952D01*
X120307619Y-69762857D02*
X120307619Y-70524761D01*
X119212380Y-70667619D02*
X120212380Y-71334285D01*
X119212380Y-71334285D02*
X120212380Y-70667619D01*
X120117142Y-72286666D02*
X120164761Y-72239047D01*
X120212380Y-72096190D01*
X120212380Y-72000952D01*
X120164761Y-71858095D01*
X120069523Y-71762857D01*
X119974285Y-71715238D01*
X119783809Y-71667619D01*
X119640952Y-71667619D01*
X119450476Y-71715238D01*
X119355238Y-71762857D01*
X119260000Y-71858095D01*
X119212380Y-72000952D01*
X119212380Y-72096190D01*
X119260000Y-72239047D01*
X119307619Y-72286666D01*
X119926666Y-72667619D02*
X119926666Y-73143809D01*
X120212380Y-72572380D02*
X119212380Y-72905714D01*
X120212380Y-73239047D01*
X120212380Y-73572380D02*
X119212380Y-73572380D01*
X120212380Y-74143809D01*
X119212380Y-74143809D01*
D11*
X113665000Y-81280000D02*
X101600000Y-81280000D01*
X100330000Y-80010000D02*
X100330000Y-74930000D01*
M02*
