G04 #@! TF.GenerationSoftware,KiCad,Pcbnew,(6.0.8)*
G04 #@! TF.CreationDate,2022-11-07T23:28:12+01:00*
G04 #@! TF.ProjectId,15_XCAN,31355f58-4341-44e2-9e6b-696361645f70,rev?*
G04 #@! TF.SameCoordinates,Original*
G04 #@! TF.FileFunction,Legend,Bot*
G04 #@! TF.FilePolarity,Positive*
%FSLAX46Y46*%
G04 Gerber Fmt 4.6, Leading zero omitted, Abs format (unit mm)*
G04 Created by KiCad (PCBNEW (6.0.8)) date 2022-11-07 23:28:12*
%MOMM*%
%LPD*%
G01*
G04 APERTURE LIST*
%ADD10C,0.150000*%
%ADD11C,0.120000*%
%ADD12R,1.700000X1.700000*%
%ADD13O,1.700000X1.700000*%
G04 APERTURE END LIST*
D10*
X107188095Y-64000000D02*
X107092857Y-64047619D01*
X106950000Y-64047619D01*
X106807142Y-64000000D01*
X106711904Y-63904761D01*
X106664285Y-63809523D01*
X106616666Y-63619047D01*
X106616666Y-63476190D01*
X106664285Y-63285714D01*
X106711904Y-63190476D01*
X106807142Y-63095238D01*
X106950000Y-63047619D01*
X107045238Y-63047619D01*
X107188095Y-63095238D01*
X107235714Y-63142857D01*
X107235714Y-63476190D01*
X107045238Y-63476190D01*
X107664285Y-63047619D02*
X107664285Y-64047619D01*
X108235714Y-63047619D01*
X108235714Y-64047619D01*
X108711904Y-63047619D02*
X108711904Y-64047619D01*
X108950000Y-64047619D01*
X109092857Y-64000000D01*
X109188095Y-63904761D01*
X109235714Y-63809523D01*
X109283333Y-63619047D01*
X109283333Y-63476190D01*
X109235714Y-63285714D01*
X109188095Y-63190476D01*
X109092857Y-63095238D01*
X108950000Y-63047619D01*
X108711904Y-63047619D01*
X106489523Y-66587619D02*
X106013333Y-66587619D01*
X105965714Y-66111428D01*
X106013333Y-66159047D01*
X106108571Y-66206666D01*
X106346666Y-66206666D01*
X106441904Y-66159047D01*
X106489523Y-66111428D01*
X106537142Y-66016190D01*
X106537142Y-65778095D01*
X106489523Y-65682857D01*
X106441904Y-65635238D01*
X106346666Y-65587619D01*
X106108571Y-65587619D01*
X106013333Y-65635238D01*
X105965714Y-65682857D01*
X106822857Y-66587619D02*
X107156190Y-65587619D01*
X107489523Y-66587619D01*
X105918095Y-71667619D02*
X106489523Y-71667619D01*
X106203809Y-70667619D02*
X106203809Y-71667619D01*
X106727619Y-71667619D02*
X107394285Y-70667619D01*
X107394285Y-71667619D02*
X106727619Y-70667619D01*
X106521428Y-73302857D02*
X106473809Y-73255238D01*
X106330952Y-73207619D01*
X106235714Y-73207619D01*
X106092857Y-73255238D01*
X105997619Y-73350476D01*
X105950000Y-73445714D01*
X105902380Y-73636190D01*
X105902380Y-73779047D01*
X105950000Y-73969523D01*
X105997619Y-74064761D01*
X106092857Y-74160000D01*
X106235714Y-74207619D01*
X106330952Y-74207619D01*
X106473809Y-74160000D01*
X106521428Y-74112380D01*
X106902380Y-73493333D02*
X107378571Y-73493333D01*
X106807142Y-73207619D02*
X107140476Y-74207619D01*
X107473809Y-73207619D01*
X107807142Y-73207619D02*
X107807142Y-74207619D01*
X108378571Y-73207619D01*
X108378571Y-74207619D01*
X108616666Y-73112380D02*
X109378571Y-73112380D01*
X110092857Y-73207619D02*
X109616666Y-73207619D01*
X109616666Y-74207619D01*
X106402380Y-75842857D02*
X106354761Y-75795238D01*
X106211904Y-75747619D01*
X106116666Y-75747619D01*
X105973809Y-75795238D01*
X105878571Y-75890476D01*
X105830952Y-75985714D01*
X105783333Y-76176190D01*
X105783333Y-76319047D01*
X105830952Y-76509523D01*
X105878571Y-76604761D01*
X105973809Y-76700000D01*
X106116666Y-76747619D01*
X106211904Y-76747619D01*
X106354761Y-76700000D01*
X106402380Y-76652380D01*
X106783333Y-76033333D02*
X107259523Y-76033333D01*
X106688095Y-75747619D02*
X107021428Y-76747619D01*
X107354761Y-75747619D01*
X107688095Y-75747619D02*
X107688095Y-76747619D01*
X108259523Y-75747619D01*
X108259523Y-76747619D01*
X108497619Y-75652380D02*
X109259523Y-75652380D01*
X109497619Y-75747619D02*
X109497619Y-76747619D01*
X109497619Y-76271428D02*
X110069047Y-76271428D01*
X110069047Y-75747619D02*
X110069047Y-76747619D01*
X106513333Y-68127619D02*
X106180000Y-68603809D01*
X105941904Y-68127619D02*
X105941904Y-69127619D01*
X106322857Y-69127619D01*
X106418095Y-69080000D01*
X106465714Y-69032380D01*
X106513333Y-68937142D01*
X106513333Y-68794285D01*
X106465714Y-68699047D01*
X106418095Y-68651428D01*
X106322857Y-68603809D01*
X105941904Y-68603809D01*
X106846666Y-69127619D02*
X107513333Y-68127619D01*
X107513333Y-69127619D02*
X106846666Y-68127619D01*
D11*
X113090000Y-64770000D02*
X110430000Y-64770000D01*
X113090000Y-64770000D02*
X113090000Y-64830000D01*
X110430000Y-64770000D02*
X110430000Y-64830000D01*
X113090000Y-64830000D02*
X110430000Y-64830000D01*
X113090000Y-63500000D02*
X113090000Y-62170000D01*
X113090000Y-62170000D02*
X111760000Y-62170000D01*
X105470000Y-64770000D02*
X102810000Y-64770000D01*
X105470000Y-62170000D02*
X104140000Y-62170000D01*
X102810000Y-64770000D02*
X102810000Y-77530000D01*
X105470000Y-63500000D02*
X105470000Y-62170000D01*
X105470000Y-64770000D02*
X105470000Y-77530000D01*
X105470000Y-77530000D02*
X102810000Y-77530000D01*
%LPC*%
D12*
X111760000Y-63500000D03*
X104140000Y-63500000D03*
D13*
X104140000Y-66040000D03*
X104140000Y-68580000D03*
X104140000Y-71120000D03*
X104140000Y-73660000D03*
X104140000Y-76200000D03*
M02*
